<?xml version="1.0" encoding="utf-8"?><!DOCTYPE svg PUBLIC "-//W3C//DTD SVG 1.1//EN" "http://www.w3.org/Graphics/SVG/1.1/DTD/svg11.dtd"><svg width="204" height="145" viewBox="0 0 204 145" xmlns="http://www.w3.org/2000/svg" xmlns:xlink="http://www.w3.org/1999/xlink"><svg width="32" height="20" viewBox="0 0 32 20" id="creditcard-amex" x="154" y="70"><g><path fill="#00ADEF" d="M0 0h32v20H0z"/><g fill="#fff"><path fill-rule="evenodd" clip-rule="evenodd" d="M13.5 10.8l-1.8-4.1H9.3v5.9L6.7 6.7h-2l-2.6 6.1h1.6l.5-1.4h3l.6 1.4h3V8.3l2 4.5h1.4l2-4.4v4.4h1.5V6.7h-2.4l-1.8 4.1zm-7.8-.7h-.9L5.7 8v.1l.9 2.1h-.9v-.1z"/><path d="M27 9.7l1.1-1.1 1.6-1.8h-1.9l-1.7 1.8-1.7-1.8h-5.9v6h5.7l1.8-2 1.7 2h1.9L28 11l-1-1.3zm-3.6 1.8H20v-1.2h3.3V9.1H20V8h3.4l1.7 1.6-1.7 1.9z"/></g></g></svg><svg width="32" height="20" viewBox="0 0 32 20" overflow="visible" id="creditcard-cvv" x="154" y="110"><path fill="#ccc" d="M0 0h32v20H0z"/><path d="M0 2h32v5H0z"/><path fill="#fff" d="M2 9.167h20v5H2zM22.5 9.167h7v5h-7z"/><path fill="#666" d="M11.01 16.498c-.018 0-.037-.002-.055-.007-.072-.016-.133-.063-.167-.13-.124-.245-.07-.688.19-1.527l.02-.07c.113-.393.24-.778.384-1.154-.028-.01-.054-.022-.078-.04-.062-.048-.1-.12-.1-.198v-.083c0-.42-.004-1.148-.204-1.55-.15.123-.3.27-.454.42-.378.37-.77.755-1.274.89-.073.022-.154.006-.216-.04-.062-.047-.098-.12-.1-.197-.003-.347 0-.694.005-1.043-.242.502-.88 1.626-1.648 1.43-.312-.083-.454-.295-.513-.54-.294.41-.693.74-1.095.806-.073.01-.14-.007-.196-.052-.056-.044-.09-.11-.095-.18-.01-.15-.005-.298.01-.445-.55.625-1.352 1.23-2.104 1.075-.115-.022-.2-.123-.202-.24-.012-.825.518-1.494 1.062-2.11.012-.013 1.21-1.32 1.842-1.207.028.004.054.01.08.02h.048c.127.017.223.126.22.255v.032c.008.044.005.088-.008.128-.03.375-.13.746-.23 1.106-.092.342-.18.67-.21.994.435-.29.87-.987.837-1.446-.01-.123.073-.234.194-.262.123-.025.243.038.288.153.072.183.054.42.035.67-.037.482-.022.706.16.753.31.088.81-.58 1.123-1.263.114-.25.156-.526.2-.82.044-.292.09-.594.21-.875.047-.106.16-.167.275-.146.114.02.2.116.205.232.032.606.023 1.22.014 1.816-.004.258-.008.516-.008.773.254-.15.493-.384.74-.627.23-.224.465-.455.723-.625.098-.064.23-.054.313.032.337.336.432.958.46 1.505.12-.298.214-.7.288-1.01.1-.416.185-.775.314-1.004.048-.083.133-.135.236-.125.096.007.18.07.215.16.02.05.04.1.057.15.55-.777 1.314-1.617 2.274-2.097.09-.045.202-.03.28.038.638.572.75 2.048.74 3.09.324-.323.918-.81 1.335-.915.126-.034.256.04.3.16.087.252.117.512.145.763l.015.122c.146-.12.305-.238.52-.316.104-.04.2-.053.286-.063.113-.016.175-.025.232-.07.107-.085.265-.068.352.04.086.108.067.266-.04.352-.17.132-.34.155-.48.173-.067.01-.126.017-.178.036-.18.064-.312.178-.465.31-.08.068-.16.138-.252.204-.067.05-.154.062-.232.034s-.138-.093-.158-.174c-.05-.19-.073-.392-.096-.593-.018-.136-.032-.268-.057-.394-.328.182-.76.55-.975.79-.115.127-.22.354-.31.6-.066.49-.198.926-.325 1.35-.08.26-.158.52-.225.805-.026.113-.126.192-.24.193h-.003c-.114 0-.214-.077-.242-.188-.095-.37.083-.867.2-1.195l.044-.127c.03-.086.06-.193.096-.312.06-.203.128-.43.206-.645.01-.082.016-.166.02-.252.072-1.177-.007-2.682-.438-3.276-.92.518-1.643 1.406-2.135 2.162.2.714.237 1.29.107 1.718-.09.3-.26.58-.423.853-.08.135-.16.268-.225.397-.055.107-.11.222-.167.34-.284.588-.606 1.256-1.128 1.653-.042.03-.095.048-.15.048zm1.62-4.398c-.47.84-.864 1.8-1.152 2.8l-.024.08c-.077.25-.13.446-.164.602.212-.306.388-.67.55-1.006.058-.12.114-.237.17-.348.07-.14.156-.28.244-.427.147-.245.3-.5.373-.738.058-.19.087-.493.002-.962zm-6.82-1.265c-.336.15-1.02.75-1.254 1.013-.42.476-.832.982-.92 1.537.667-.06 1.452-.866 1.816-1.466.19-.312.28-.717.36-1.085z"/><text transform="translate(23.001 12.631)" font-family="'Helvetica-Oblique'" font-size="3">123</text><path fill="#EE2A69" d="M26 9.167c2.168 0 4 1.146 4 2.5 0 1.355-1.832 2.5-4 2.5-2.17 0-4-1.145-4-2.5s1.83-2.5 4-2.5m0-1c-2.762 0-5 1.567-5 3.5 0 1.934 2.238 3.5 5 3.5 2.76 0 5-1.566 5-3.5 0-1.933-2.24-3.5-5-3.5z"/></svg><svg width="32" height="20" viewBox="0 0 32 20" overflow="visible" id="creditcard-dinersclub" x="154" y="90"><path fill="#fff" d="M0 0h32v20H0z"/><path d="M2.006 17.812v-.192c.268 0 .448-.032.54-.1.09-.064.137-.205.137-.423v-3.11c0-.138-.024-.23-.073-.282-.06-.068-.187-.102-.377-.102L2 13.615v-.174c.744-.117 1.342-.176 1.798-.176.788 0 1.415.175 1.882.523.532.396.798.982.798 1.757 0 .68-.22 1.23-.655 1.645-.437.414-1.016.62-1.74.62-.084 0-.267-.003-.547-.015l-.445-.016-1.084.032zm2.036-.23c.56 0 1.003-.183 1.328-.55.325-.364.487-.87.487-1.513 0-.63-.187-1.13-.56-1.502-.354-.35-.803-.523-1.348-.523-.277 0-.466.03-.567.092-.102.062-.152.19-.152.387v2.977c0 .422.27.633.812.633zM7.533 15.2v2.183c0 .105.025.18.075.22.05.042.152.063.305.063v.142l-.554-.024h-.342c-.075 0-.14.005-.2.013-.057.01-.092.012-.103.012v-.148c.13-.016.216-.03.258-.047.097-.04.145-.122.145-.248v-1.433c0-.094-.018-.162-.053-.203-.035-.04-.122-.084-.26-.132v-.1l.728-.297zm-.22-1.72c.083 0 .153.03.21.092.06.062.088.135.088.22 0 .088-.028.16-.086.223-.058.06-.128.09-.21.09-.086 0-.156-.028-.213-.088-.055-.06-.082-.133-.082-.224 0-.086.03-.16.087-.22.058-.062.127-.094.21-.094zM8.217 17.807v-.147c.13-.016.216-.03.257-.047.097-.04.146-.122.146-.248v-1.433c0-.094-.018-.162-.053-.203-.036-.042-.123-.086-.26-.134v-.1l.682-.295.033.024v.494c.15-.132.287-.237.415-.31.183-.108.354-.16.514-.16.18 0 .32.043.425.13.157.13.235.353.235.673V17.4c0 .1.023.167.07.206.047.04.145.06.294.06v.142l-.548-.024c-.138 0-.257.003-.358.01-.1.004-.195.01-.285.015v-.142c.167 0 .274-.013.32-.04.062-.04.094-.137.094-.29V16.14c0-.38-.148-.567-.443-.567-.228 0-.472.11-.733.324v1.486c0 .105.025.18.076.22.05.042.152.063.305.063v.142l-.548-.024c-.07 0-.164.005-.28.01s-.237.01-.36.013zM12.18 17.87c-.312 0-.576-.088-.793-.265-.26-.212-.39-.52-.39-.93 0-.45.143-.814.43-1.098.254-.25.552-.377.89-.377.276 0 .51.08.698.238.188.16.283.38.283.663l-.006.148h-1.82l-.02.194c0 .283.085.527.254.73.19.233.438.35.74.35.256 0 .516-.12.78-.36l.09.088c-.324.415-.703.62-1.136.62zm-.683-1.785h1c.188 0 .28-.075.28-.23 0-.14-.05-.257-.148-.347-.1-.09-.235-.136-.404-.136-.165 0-.315.06-.45.18-.14.12-.23.298-.28.533zM14.24 15.902l.184-.254c.108-.145.214-.25.316-.318.103-.066.2-.1.288-.1.085 0 .154.028.207.083.052.055.08.124.08.206 0 .167-.068.252-.203.252-.063 0-.13-.016-.2-.047-.03-.012-.065-.023-.102-.033-.038-.01-.065-.015-.084-.015-.06 0-.125.032-.196.095s-.168.176-.29.34v1.106c0 .148.018.25.055.305.06.087.19.13.392.13v.158l-.548-.01h-.66v-.123c.137 0 .23-.025.276-.074.046-.05.07-.145.07-.286v-1.422c0-.048-.015-.086-.045-.117-.04-.045-.135-.102-.285-.172v-.112l.745-.288v.696zM15.646 17.078l.146-.023c.116.42.318.63.61.63.126 0 .235-.04.324-.118.09-.078.134-.184.134-.312 0-.17-.06-.3-.18-.39l-.346-.226c-.224-.147-.376-.274-.456-.39-.08-.11-.12-.233-.12-.367 0-.173.062-.33.185-.467.15-.166.35-.248.6-.248h.066c.06 0 .128.01.206.03.08.02.206.064.38.134l-.017.543h-.106c-.12-.365-.297-.548-.532-.548-.123 0-.226.036-.308.112-.082.073-.124.166-.124.276 0 .09.017.16.05.206.072.1.234.22.488.367.187.118.31.206.37.266.145.145.217.32.217.525 0 .23-.083.414-.25.557-.17.14-.37.212-.605.212s-.467-.08-.694-.238c0-.242-.013-.42-.04-.534zM21.343 17.92c-.597 0-1.117-.2-1.56-.6-.493-.446-.74-1.03-.74-1.747 0-.57.19-1.08.565-1.53.433-.52.996-.778 1.69-.778.477 0 .916.12 1.314.36 0 .11.008.26.022.452s.032.342.05.448l-.14.026c-.074-.324-.224-.584-.444-.777-.223-.194-.48-.292-.77-.292-.52 0-.942.222-1.26.664-.28.392-.42.854-.42 1.39 0 .595.148 1.09.443 1.485.323.433.763.65 1.314.65.66 0 1.062-.34 1.203-1.013l.162.044c-.05.282-.085.494-.108.638-.024.145-.037.223-.037.235-.398.23-.828.346-1.284.346zM23.88 13.248v4.14c0 .106.026.18.077.222s.15.062.305.062v.14l-.555-.02c-.1 0-.204.002-.313.007-.107.006-.218.01-.33.014v-.146c.13-.015.216-.032.26-.047.096-.04.144-.12.144-.247v-3.187c0-.155-.02-.268-.06-.332-.04-.064-.123-.124-.254-.18v-.084l.727-.342zM26.785 15.248v1.828c0 .148.014.25.042.306.028.056.085.083.17.083.02 0 .05-.003.09-.01l.097-.014v.114c-.164.047-.42.158-.762.335l-.07-.05.023-.453c-.236.195-.43.33-.58.405-.124.064-.246.097-.366.097-.496 0-.743-.284-.743-.85V15.94c0-.17-.015-.277-.042-.325-.053-.087-.183-.13-.392-.13v-.13c.063 0 .165-.008.302-.024.34-.04.53-.06.565-.06v1.55c0 .48.194.72.583.72.185 0 .4-.103.647-.308V15.78c0-.107-.026-.18-.08-.22-.065-.052-.19-.077-.378-.077v-.13c.185 0 .353-.012.507-.038.152-.025.28-.048.385-.067zM27.694 17.205v-3.02c0-.14-.013-.24-.038-.294-.04-.086-.133-.16-.275-.218v-.082c.16-.06.4-.174.72-.343v2.265c.33-.2.597-.3.798-.3.26 0 .5.098.717.296.257.237.385.554.385.947 0 .447-.147.806-.44 1.08-.26.234-.553.354-.88.354-.12 0-.24-.023-.363-.065-.08-.02-.15-.042-.214-.062-.1-.034-.165-.05-.195-.05-.044 0-.082.058-.11.177h-.136c.004-.048.01-.11.02-.19.008-.08.012-.244.012-.495zm.405-1.52v1.126c0 .283.057.497.175.645.116.148.28.224.49.224.268 0 .47-.115.608-.34.12-.193.18-.437.18-.73 0-.322-.066-.583-.196-.78-.152-.233-.377-.35-.67-.35-.174-.002-.37.067-.588.206z"/><path fill="#204683" d="M22.88 7.724c0-3.116-2.526-5.642-5.64-5.642-.11 0-.22.003-.326.01h-2.3c-.106-.007-.214-.01-.323-.01-3.115 0-5.64 2.526-5.64 5.642s2.525 5.642 5.64 5.642c.098 0 .195-.002.292-.006h2.366c.096.004.193.006.292.006.097 0 .193-.002.29-.006h.033v-.002c2.965-.17 5.317-2.627 5.317-5.634zm-13.76 0c0-2.85 2.32-5.17 5.17-5.17 2.853 0 5.172 2.32 5.172 5.17s-2.32 5.17-5.17 5.17c-2.852 0-5.17-2.32-5.17-5.17z"/><path fill="#fff" d="M14.29 12.895c2.853 0 5.172-2.32 5.172-5.17s-2.32-5.17-5.17-5.17c-2.852 0-5.17 2.318-5.17 5.17s2.318 5.17 5.17 5.17zm1.166-8.228c1.232.47 2.107 1.66 2.107 3.057 0 1.396-.875 2.588-2.107 3.057V4.668zM11.02 7.724c0-1.396.874-2.588 2.106-3.057v6.114c-1.232-.468-2.107-1.66-2.107-3.056z"/><path fill="#204683" d="M13.126 10.78V4.668c-1.232.47-2.107 1.66-2.107 3.057 0 1.396.874 2.588 2.106 3.057zM17.562 7.724c0-1.396-.875-2.588-2.107-3.057v6.114c1.233-.468 2.107-1.66 2.107-3.056z"/></svg><svg width="32" height="20" viewBox="0 0 32 20" overflow="visible" id="creditcard-discover" x="117" y="32.004"><path fill="#fff" d="M0 0h32v20H0z"/><path fill="#D97B16" d="M32 8.42S27.23 16.58 9.91 20H32"/><path d="M9.64 12.41v-1.65h.22l.87 1.29v-1.29h.21v1.65h-.22l-.86-1.29v1.29h-.22zM11.31 12.41v-1.65h1.19v.19h-.97v.5h.91v.19h-.91v.56h1.01v.19h-1.23v.02zM13.26 12.41v-1.45h-.54v-.19h1.31v.19h-.54v1.45h-.23zM14.53 12.41l-.44-1.65h.22l.25 1.08c.03.11.05.23.07.34.04-.18.07-.28.07-.3l.31-1.11h.26l.24.83c.06.21.1.4.13.58.02-.1.05-.22.08-.36l.26-1.06h.22l-.45 1.65h-.21l-.35-1.25c-.03-.1-.05-.17-.05-.19-.02.08-.03.14-.05.19l-.35 1.25h-.21zM16.35 11.6c0-.27.07-.49.22-.64.15-.16.34-.23.57-.23.15 0 .29.04.41.11s.21.17.28.3c.06.13.1.28.1.44 0 .17-.03.32-.1.45s-.16.23-.29.3c-.12.07-.262.1-.4.1-.16 0-.29-.04-.42-.11-.12-.08-.21-.18-.28-.31-.06-.12-.09-.26-.09-.41zm.23.01c0 .2.05.36.16.47.11.11.24.17.4.17.16 0 .3-.06.4-.17.11-.12.16-.28.16-.49 0-.13-.022-.25-.07-.35s-.11-.18-.2-.23c-.09-.06-.19-.08-.29-.08-.15 0-.29.05-.4.16-.11.09-.16.27-.16.52zM18.21 12.41v-1.65h.73c.15 0 .26.01.33.04.08.03.14.08.18.16s.07.16.07.25c0 .12-.04.22-.11.3-.08.08-.19.13-.35.15.06.03.1.05.13.08.06.06.12.13.18.22l.29.45h-.27l-.22-.34c-.062-.1-.12-.17-.16-.23-.04-.06-.08-.09-.11-.11-.03-.02-.07-.04-.1-.04-.022 0-.07-.01-.12-.01h-.25v.73h-.22zm.22-.92h.47c.1 0 .18-.01.23-.03.06-.02.1-.05.13-.1.03-.04.04-.09.04-.15 0-.08-.03-.14-.08-.19-.06-.05-.15-.08-.27-.08h-.52v.55zM19.86 12.41v-1.65h.22v.82l.82-.82h.29l-.69.67.72.98h-.29l-.59-.83-.27.26v.57h-.21z"/><path fill="#414042" d="M3.63 5.17H2.31v4.21H3.5c.74 0 1.31-.18 1.71-.55s.59-.9.59-1.59c0-.65-.19-1.16-.57-1.52-.38-.36-.91-.55-1.6-.55zm-.04 3.47h-.38V5.91h.48c.8 0 1.2.45 1.2 1.35-.01.92-.44 1.38-1.3 1.38zM6.56 5.17h.89v4.21h-.89zM9.96 6.95c-.3-.14-.49-.24-.57-.3s-.13-.1-.17-.16c-.03-.06-.05-.13-.05-.21 0-.13.04-.23.14-.31.08-.07.21-.11.38-.11.14 0 .29.02.43.05.15.04.33.1.56.19l.29-.69c-.22-.09-.42-.17-.62-.22-.2-.05-.41-.08-.63-.08-.45 0-.79.11-1.05.32-.24.22-.37.51-.37.88 0 .2.04.37.11.52.08.15.18.28.31.39.13.11.32.23.58.35.27.13.46.22.55.28.09.06.16.12.2.19.05.06.07.14.07.22 0 .15-.05.26-.16.33-.1.08-.25.11-.45.11-.16 0-.34-.03-.54-.08s-.44-.14-.72-.27v.83c.35.17.74.26 1.19.26.49 0 .87-.11 1.14-.33.27-.22.41-.52.41-.9 0-.27-.07-.51-.22-.69-.14-.19-.41-.38-.81-.57zM12.49 7.29c0-.45.09-.8.28-1.05.18-.25.44-.38.78-.38.15 0 .31.03.47.08.16.06.32.12.48.2l.29-.73c-.41-.2-.82-.3-1.23-.3-.4 0-.75.09-1.05.26-.3.18-.53.43-.69.76-.16.33-.24.71-.24 1.15 0 .69.16 1.23.49 1.6.32.37.79.56 1.4.56.43 0 .81-.07 1.16-.22v-.75c-.42.15-.78.22-1.07.22-.72.01-1.07-.46-1.07-1.4zM20.96 7.68c-.12.44-.19.75-.22.93-.01-.08-.04-.21-.09-.41-.05-.2-.09-.37-.14-.52l-.79-2.5h-.9l1.43 4.21h.972l1.43-4.21h-.9l-.792 2.5zM23.19 9.38h2.42v-.74h-1.53V7.56h1.42v-.73h-1.42v-.92h1.53v-.74h-2.42zM28.61 7.55c.25-.11.44-.26.58-.45.14-.19.2-.41.2-.66 0-.42-.14-.74-.41-.95-.28-.21-.7-.31-1.27-.31h-1.23v4.21h.89V7.77h.47l1 1.61h.99c-.17-.28-.59-.89-1.22-1.83zm-.32-.65c-.13.09-.34.14-.62.14h-.29V5.9h.27c.29 0 .5.04.64.13s.21.23.21.43c-.01.2-.08.35-.21.44z"/><circle fill="#D97B16" cx="16.82" cy="7.28" r="2.1"/></svg><svg width="32" height="20" viewBox="0 0 32 20" overflow="visible" id="creditcard-mastercard" x="117" y="52.004"><path fill="#003473" d="M0 0h32v20H0z"/><ellipse fill="#ED1C2E" cx="10.122" cy="10" rx="8.759" ry="8.653"/><path fill="#FCB131" d="M21.88 1.346c-2.263 0-4.323.848-5.88 2.24-.315.283-.61.59-.883.916h1.77c.242.29.465.596.668.916H14.45c-.186.294-.355.6-.505.917h4.114c.14.296.264.602.37.916h-4.856c-.102.3-.187.605-.255.917h5.364c.13.59.197 1.204.197 1.833 0 .96-.157 1.885-.45 2.75h-4.856c.106.312.23.618.37.915h4.115c-.15.316-.32.622-.506.917H14.45c.203.32.426.625.668.916h1.77c-.272.326-.568.633-.885.916 1.555 1.392 3.616 2.24 5.88 2.24 4.837 0 8.76-3.875 8.76-8.654s-3.924-8.654-8.762-8.654zM29.473 14.824c0-.155.127-.28.283-.28s.283.125.283.28c0 .154-.128.28-.284.28s-.283-.125-.283-.28zm.283.212c.12 0 .215-.095.215-.212 0-.118-.095-.213-.214-.213s-.215.096-.215.214c0 .117.097.212.216.212zm-.037-.09h-.06V14.7h.105c.02 0 .043 0 .062.013.02.014.03.037.03.062 0 .028-.015.054-.042.063l.047.108h-.064l-.038-.096h-.04v.096zm0-.138h.03c.012 0 .025 0 .035-.005.01-.007.016-.018.016-.028 0-.01-.007-.02-.015-.025-.01-.006-.025-.005-.037-.005h-.03v.063z"/><path fill="#003473" d="M8.077 10.947c-.1-.012-.144-.015-.212-.015-.54 0-.812.183-.812.543 0 .223.133.364.34.364.388 0 .667-.364.684-.893zm.69 1.59H7.98l.018-.37c-.24.293-.56.433-.997.433-.514 0-.868-.397-.868-.976 0-.87.615-1.376 1.67-1.376.107 0 .245.01.387.027.028-.117.036-.168.036-.23 0-.237-.166-.326-.61-.326-.464-.006-.847.11-1.005.16l.133-.803c.473-.138.786-.19 1.137-.19.817 0 1.25.363 1.25 1.048 0 .184-.03.41-.078.708-.083.516-.26 1.625-.284 1.895zM5.735 12.538h-.95l.544-3.375-1.218 3.375h-.648l-.08-3.355-.572 3.355h-.89l.743-4.39h1.368l.082 2.457.835-2.457h1.52zM23.057 10.947c-.1-.012-.143-.015-.21-.015-.542 0-.813.183-.813.543 0 .223.133.364.34.364.388 0 .667-.364.683-.893zm.69 1.59h-.786l.02-.37c-.24.293-.562.433-.997.433-.516 0-.87-.397-.87-.976 0-.87.616-1.376 1.67-1.376.108 0 .247.01.388.027.03-.117.038-.168.038-.23 0-.237-.166-.326-.61-.326-.464-.006-.85.11-1.007.16.013-.06.134-.803.134-.803.475-.138.787-.19 1.14-.19.815 0 1.247.363 1.247 1.048.003.184-.028.41-.075.708-.086.516-.262 1.625-.287 1.895zM12.994 12.483c-.26.08-.463.116-.683.116-.485 0-.75-.277-.75-.785-.007-.158.07-.573.13-.952.055-.333.413-2.436.413-2.436h.945l-.11.54h.57l-.128.858h-.573c-.11.68-.266 1.524-.268 1.637 0 .184.1.264.325.264.108 0 .192-.01.256-.033l-.126.79zM15.893 12.455c-.325.098-.638.146-.97.145-1.058-.002-1.61-.547-1.61-1.593 0-1.22.702-2.12 1.655-2.12.78 0 1.277.504 1.277 1.293 0 .263-.034.518-.117.878h-1.882c-.063.52.27.733.822.733.338 0 .644-.067.982-.223l-.157.888zm-.532-2.117c.007-.074.1-.637-.44-.637-.3 0-.515.228-.603.638h1.044zM9.338 10.097c0 .45.222.763.724.996.385.18.445.232.445.395 0 .222-.17.323-.546.323-.283 0-.547-.043-.852-.14l-.13.824c.216.046.41.09.99.105 1.002 0 1.466-.38 1.466-1.194 0-.49-.194-.778-.67-.995-.398-.18-.445-.22-.445-.387 0-.193.157-.29.464-.29.187 0 .442.02.684.052l.135-.827c-.246-.04-.62-.07-.837-.07-1.063 0-1.43.55-1.428 1.21zM20.518 8.982c.264 0 .51.067.85.237l.156-.954c-.14-.054-.63-.372-1.046-.372-.636 0-1.175.312-1.553.827-.552-.18-.78.186-1.058.55l-.246.057c.02-.12.036-.24.03-.36h-.873c-.12 1.106-.33 2.226-.496 3.33l-.042.24h.952c.158-1.02.245-1.67.3-2.113l.356-.196c.055-.197.22-.264.557-.255-.043.232-.066.478-.066.73 0 1.17.64 1.897 1.66 1.897.265 0 .49-.034.842-.13l.165-1c-.314.154-.572.226-.807.226-.553 0-.888-.403-.888-1.07 0-.967.497-1.644 1.208-1.644zM28.568 8.148l-.21 1.268c-.26-.338-.54-.582-.91-.582-.48 0-.915.36-1.202.89-.398-.083-.81-.222-.81-.222v.003c.032-.296.046-.476.042-.537h-.873c-.12 1.105-.33 2.225-.496 3.33l-.044.24h.95c.13-.824.228-1.51.3-2.052.324-.29.488-.543.816-.526-.146.348-.23.748-.23 1.158 0 .893.457 1.48 1.148 1.48.348 0 .615-.118.877-.394l-.045.332h.898l.725-4.39h-.937zm-1.19 3.565c-.323 0-.487-.237-.487-.703 0-.702.308-1.2.74-1.2.325 0 .503.246.503.7 0 .707-.31 1.203-.754 1.203z"/><path fill="#fff" d="M6.008 12.277h-.95l.545-3.374-1.217 3.374h-.648l-.08-3.354-.573 3.354h-.89l.744-4.39h1.366l.038 2.718.923-2.717h1.477zM8.35 10.688c-.1-.012-.144-.015-.212-.015-.54 0-.812.182-.812.543 0 .222.133.364.34.364.39 0 .667-.365.684-.892zm.692 1.59h-.788l.018-.37c-.24.29-.56.43-.997.43-.516 0-.87-.396-.87-.975 0-.87.616-1.375 1.67-1.375.108 0 .246.01.388.027.03-.118.037-.168.037-.232 0-.236-.166-.324-.61-.324-.465-.006-.85.108-1.007.16l.132-.804c.475-.136.788-.188 1.14-.188.816 0 1.248.362 1.248 1.047 0 .184-.03.41-.077.707-.083.516-.26 1.626-.284 1.895zM21.797 8.006l-.156.953c-.34-.17-.585-.238-.85-.238-.71 0-1.207.678-1.207 1.645 0 .667.335 1.07.888 1.07.235 0 .493-.073.808-.227l-.166 1c-.35.095-.576.13-.84.13-1.024 0-1.662-.728-1.662-1.896 0-1.57.88-2.666 2.142-2.666.414 0 .904.174 1.045.228zM23.33 10.688c-.1-.012-.143-.015-.21-.015-.54 0-.813.182-.813.543 0 .222.133.364.342.364.385 0 .664-.365.68-.892zm.69 1.59h-.786l.018-.37c-.24.29-.56.43-.996.43-.516 0-.87-.396-.87-.975 0-.87.616-1.375 1.67-1.375.108 0 .247.01.388.027.03-.118.037-.168.037-.232 0-.236-.163-.324-.608-.324-.465-.006-.848.108-1.006.16l.13-.804c.476-.137.788-.188 1.14-.188.816 0 1.25.362 1.248 1.047.002.184-.03.41-.076.707-.083.516-.26 1.626-.287 1.895zM13.268 12.223c-.26.08-.463.116-.683.116-.486 0-.752-.276-.752-.784-.006-.16.07-.573.13-.952l.413-2.437h.945l-.11.54h.486l-.13.858h-.486c-.11.68-.267 1.524-.27 1.637 0 .185.1.265.327.265.108 0 .192-.01.256-.034l-.125.79zM16.167 12.194c-.325.1-.64.146-.97.145-1.06 0-1.61-.548-1.61-1.593 0-1.22.702-2.12 1.654-2.12.78 0 1.278.504 1.278 1.293 0 .262-.035.518-.116.878H14.52c-.064.518.27.734.82.734.34 0 .645-.07.984-.226l-.157.888zm-.532-2.116c.005-.075.1-.638-.44-.638-.3 0-.516.228-.604.638h1.045zM9.612 9.836c0 .452.222.763.724.997.385.18.444.23.444.394 0 .223-.17.323-.546.323-.284 0-.548-.043-.852-.14l-.13.823c.216.047.41.09.99.105 1.002 0 1.466-.377 1.466-1.192 0-.49-.194-.78-.67-.995-.398-.18-.444-.22-.444-.386 0-.193.158-.292.465-.292.186 0 .44.02.682.054l.136-.828c-.247-.038-.62-.07-.837-.07-1.063 0-1.43.55-1.428 1.208zM29.055 12.277h-.898l.045-.332c-.262.275-.53.394-.877.394-.69 0-1.148-.59-1.148-1.482 0-1.187.71-2.188 1.547-2.188.37 0 .648.148.908.486l.21-1.27h.94l-.727 4.39zm-1.403-.825c.443 0 .754-.495.754-1.202 0-.454-.178-.7-.504-.7-.432 0-.738.497-.738 1.2 0 .467.164.702.488.702zM24.88 8.707c-.12 1.105-.33 2.225-.497 3.33l-.043.24h.95c.34-2.184.423-2.61.956-2.556.086-.446.244-.838.36-1.034-.397-.082-.62.14-.91.562.022-.183.063-.36.056-.542h-.873zM17.05 8.707c-.118 1.105-.33 2.225-.495 3.33l-.043.24h.95c.34-2.184.423-2.61.956-2.556.086-.446.244-.838.36-1.034-.397-.082-.62.14-.91.562.022-.183.064-.36.056-.542h-.873zM29.473 11.998c0-.155.127-.28.283-.28s.283.125.283.28c0 .153-.128.28-.284.28s-.283-.127-.283-.28zm.283.212c.12 0 .215-.095.215-.212s-.095-.213-.214-.213-.215.096-.215.213.097.212.216.212zm-.04-.09h-.056v-.245h.105c.02 0 .043 0 .062.013.02.013.03.036.03.06 0 .03-.015.055-.042.064l.047.108h-.064l-.04-.097h-.042v.097zm0-.14h.034c.012 0 .025.002.035-.004s.014-.018.014-.028c0-.01-.007-.02-.015-.025-.01-.006-.025-.004-.037-.004h-.03v.06z"/></svg><svg width="32" height="20" viewBox="0 0 32 20" id="creditcard-visa" x="154" y="50"><path fill="#fff" d="M1 1h30v18H1z"/><path fill="#1D478E" d="M5.5 7.087v-.2h2.982l.104 2.07.104 2.067c.248-.577.87-1.61 1.43-2.5.558-.89 1.054-1.635 1.054-1.635h1.7l-1.834 3.12-1.833 3.123H7.364l-.477-2.467L6.41 8.2c-.082-.497-.258-.87-.496-1.03-.155-.103-.414-.083-.414-.083zM13.91 6.888h1.656l-2.113 6.243h-1.656zM20.95 7.564l-.953 1.073c-1.422-1.146-2.07-.304-2.07-.304-.436.643 1.02 1.266 1.02 1.266 1.685.978 1.196 2.114 1.196 2.114-.81 1.855-2.758 1.644-2.758 1.644-2.248-.173-2.62-.75-2.62-.75l.897-1.22c1.525 1.007 2.417.524 2.417.524.91-.803-.678-1.312-.678-1.312-2.265-1.062-1.076-2.804-1.076-2.804 1.416-1.88 3.52-.908 3.52-.908.573.252 1.103.676 1.103.676zM26.5 13.13l-.607-6.24H23.6l-3.505 6.24h1.934l.41-.886 2.27.053.024.836H26.5v-.002zm-3.423-2.08l1.48-2.815.148 2.816h-1.628zM1 1h30v3.6H1z"/><path fill="#EFA634" d="M1 15.4h30V19H1z"/></svg><svg width="14" height="14" viewBox="0 0 14 14" id="heart" x="186" y="70"><path fill="#DD5C8B" d="M14 4.397C14 2.297 12.425.59 10.5.59c-1.88 0-3.413.963-3.5 2.932C6.912 1.51 5.38.592 3.5.592 1.575.59 0 2.296 0 4.396c0 1.094.438 2.1 1.137 2.8 0 0 5.12 5.03 5.863 6.212 0 0 .57-1.182 5.73-6.082l.133-.13c.7-.7 1.137-1.664 1.137-2.8z"/></svg><svg viewBox="0 0 7.0119 11.6667" enable-background="new 0 0 7.0119 11.6667" width="7.0119" height="11.6667" id="item-arrow-left" x="186" y="90"><path fill="none" stroke="#000" stroke-width="1.667" stroke-linecap="round" stroke-miterlimit="10" d="M6.178 10.833l-5-5 5-5"/></svg><svg viewBox="0 0 7.0118 11.6667" enable-background="new 0 0 7.0118 11.6667" width="7.0118" height="11.6667" id="item-arrow-right" x="193.0119" y="90"><path fill="none" stroke="#000" stroke-width="1.667" stroke-linecap="round" stroke-miterlimit="10" d="M.833.833l5 5-5 5"/></svg><svg width="14.18" height="13.26" viewBox="-42.56 44.62 14.18 13.26" enable-background="new -42.56 44.62 14.18 13.26" id="message" x="186" y="50"><path d="M-41.53 44.62h12.11c.59 0 1.03.5 1.03 1.15v7.9c0 .62-.47 1.15-1.03 1.15h-1.41l1.12 3.07-3.27-3.07h-8.55c-.59 0-1.03-.5-1.03-1.15v-7.9c0-.64.47-1.15 1.03-1.15z"/></svg><svg width="117" height="52" viewBox="0 0 117 52" id="showcase" y="32.004"><linearGradient id="ka" gradientUnits="userSpaceOnUse" x1="14.643" y1="-24.107" x2="79.672" y2="7.465" gradientTransform="matrix(.996 -.093 -.093 -.996 -10.711 16.961)"><stop offset=".012" stop-color="#003773"/><stop offset=".26" stop-color="#E7FBFF"/><stop offset=".479" stop-color="#fff"/><stop offset=".751" stop-color="#ECF8FC"/><stop offset=".97" stop-color="#DCE5E5"/></linearGradient><path fill="url(#ka)" d="M15 30s-2.1 7.4 6.1 8.3c0 0-17.4.1-14.9-4.5 2.4-4.6 4.1-5.2 8.8-3.8z"/><linearGradient id="kb" gradientUnits="userSpaceOnUse" x1="10.253" y1="-15.49" x2="123.674" y2="-15.49" gradientTransform="matrix(.996 -.093 -.093 -.996 -10.711 16.961)"><stop offset="0" stop-color="#666"/><stop offset=".047" stop-color="#BDBDBD"/><stop offset=".049" stop-color="#BDBDBD"/><stop offset=".134" stop-color="#D7D7D7"/><stop offset=".221" stop-color="#EAEAEA"/><stop offset=".311" stop-color="#F5F5F5"/><stop offset=".408" stop-color="#F9F9F9"/><stop offset=".675" stop-color="#fff"/><stop offset=".947" stop-color="#C7C7C7"/><stop offset="1" stop-color="#777"/></linearGradient><path fill="url(#kb)" stroke="#18252D" stroke-width="1.5" stroke-linejoin="round" d="M116 43.6l-3-1.2s-1.6-.3-7-4.7C98 31.2 55.8-4 7.5 2c-4.6 5.7-.9 7.6-.9 7.6s-1.6 3.2.5 5.2c-1.2 1.7-1.6 2-.2 4.4C8.6 21.9-9.9 33.9 11 39c5.6.5 9.5-.6 9.5-.6s-18.3 0-11-7c6.5-6.2 32.4 1 37.6 3.7 0 0 13.5 8.5 40.6 14.2 11.2 2.4 17.8 1.9 23.2-.8 1.9-1 3.2-3.1 5.1-4.9z"/><g fill="#493038" stroke="#493038" stroke-width=".427"><path d="M13.3 18.9c0 .1 0 .2.1.2.4.3 1 .5 1.6.6.7.1 1.5-.1 2-.5.4-.3.6-.8.7-1.4.1-1.4-.6-1.7-2.3-2.7-1.8-.9-3.1-2.1-3-3.9.1-1.2.8-2.1 1.6-2.7.9-.6 2.2-.9 3.8-.8 1 .1 2 .3 2.5.6v3.3c-.5 0-1 .1-1.5.1l-.2-1.9c0-.1 0-.2-.1-.2-.3-.3-.7-.4-1.3-.5-.6 0-1.2.1-1.6.4-.4.2-.7.7-.8 1.4-.1 1.2.4 1.5 2.4 2.5s3.1 2.1 2.9 3.9c-.1 1.2-.6 2.2-1.5 2.9-.9.7-2.2.9-4 .8-.9-.1-2.2-.3-3-.7v-3.4c.5-.1 1.1-.1 1.6-.1l.1 2.1zM23.1 20.3l.8-7.6-1.1-.2c0-.4.1-.8.1-1.2.7.1 1.6.2 2.3.2.8.1 1.7.2 2.4.2 0 .4-.1.8-.1 1.2l-1.2-.1v.1l-.3 2.8s0 .1.1.1l4.3.4.3-3-1.3-.2c0-.4.1-.8.1-1.2.7.1 1.6.2 2.4.2.7.1 1.5.2 2.2.2 0 .4-.1.8-.1 1.2l-1-.1s-.1 0-.1.1l-.9 7.8 1.1.2c0 .4-.1.8-.1 1.2-.7-.1-1.5-.2-2.2-.2-.8-.1-1.7-.2-2.4-.2 0-.4.1-.8.1-1.2l1.2.1h.1l.3-3.2s0-.1-.1-.1l-4.3-.4-.4 3.3 1.3.2c0 .4-.1.8-.1 1.2-.7-.1-1.6-.2-2.4-.3-.8-.1-1.6-.1-2.3-.2 0-.4.1-.8.1-1.2l1.2-.1zM39.7 23.7c-1.6-.2-2.7-.9-3.5-1.8-.8-1-1.2-2.4-1-4 .3-2.1 1.6-3.6 2.9-4.2 1.1-.5 2.2-.6 3.5-.4 1.2.2 2.2.6 3 1.3 1 1 1.6 2.6 1.4 4.4-.2 1.6-1 3.1-2.3 4-.9.6-2.2.9-4 .7zm.5-1.2c.7.1 1.5-.1 2.1-.6.7-.6 1.2-1.6 1.4-3 .2-1.2 0-2.3-.5-3.2-.4-.8-1.1-1.2-1.9-1.3-.8-.1-1.4.1-2 .6-.7.5-1.4 1.6-1.6 3.1-.2 1.3 0 2.5.6 3.3.5.7 1.2 1 1.9 1.1zM61.8 20.5c-.7 1.1-1.5 2.2-2.3 3.4-.9 1.4-2.1 3-3.1 4.5-.4-.1-1.1-.3-1.9-.6 0-2.2 0-4.5.2-6.9h-.1c-1.4 1.9-2.9 3.9-4.2 5.6-.4-.1-1.1-.3-1.8-.6.1-1.9.2-3.7.3-5.5.1-1.3.2-2.7.3-3.8 0 0 0-.1-.1-.1l-.9-.3c.1-.4.3-.8.4-1.2.6.2 1.4.5 2 .7l2.7.9c-.1.3-.2.7-.4 1.1l-1.4-.4c-.1.6-.3 1.8-.4 3-.2 1.3-.4 2.6-.6 3.8h.1c1.1-1.5 3.4-4.9 4.6-6.4.3.1 1.2.3 1.6.5-.1 2-.2 5.6-.4 7.8h.1c.6-1 1.2-2.1 1.8-3.1.5-.9 1.3-2.2 1.6-2.9v-.1l-1.2-.4c.1-.4.3-.8.4-1.2.7.2 1.6.5 2.3.7.5.2 1.1.3 1.7.5-.1.4-.2.7-.4 1.2l-.9-.2zM70.6 24v-.3c-.2-.2-.5-.4-.9-.6-.6-.3-1.5-.4-2.3-.1-1 .4-1.9 1.2-2.4 2.4-.5 1.1-.6 2-.3 3 .3.8 1 1.4 1.9 1.7.8.4 2 .6 2.8.7-.1.4-.2.9-.3 1.3-1.3-.1-2.6-.4-3.6-.8-1.2-.5-2.2-1.3-2.8-2.3-.7-1.1-.8-2.7-.1-4.2.9-2 2.5-3 4-3.3 1.4-.3 2.9-.1 4.2.5 1 .5 1.7.9 2 1.2-.3 1-.7 1.9-1.1 3-.4-.1-.9-.3-1.4-.5l.3-1.7zM71.3 32.4c.1 0 .1 0 0 0 2.2-1.9 5.2-4.5 7.4-6.5.3.1.9.4 1.7.8-.2 2.9-.6 7-.8 9.7l.8.4c-.2.4-.4.7-.5 1.1-.5-.3-1.2-.6-1.7-.8-.7-.4-1.6-.8-2.3-1.1.2-.3.3-.7.5-1.1l1 .5s.1 0 .1-.1c0-.5.1-1.1.1-1.5 0-.1 0-.1-.1-.1l-3.4-1.6c-.4.3-.9.8-1.2 1.2l1.2.6c-.2.4-.4.7-.5 1.1-.7-.3-1.4-.7-2.2-1.1-.5-.2-1-.5-1.4-.7.2-.3.3-.7.5-1.1l.8.3zm7-4.2c-1 1-2.2 2.1-3.1 2.9 0 0-.1.1 0 .1l2.8 1.3c.1-1.3.3-2.9.5-4.3h-.2zM83.4 37.8v.2c.2.3.6.7 1.1.9.6.3 1.3.5 1.8.3.4-.1.6-.3.8-.7.4-.9-.1-1.4-1.2-2.6-1.2-1.2-1.9-2.5-1.2-3.9.4-.8 1.2-1.3 2-1.5s2 0 3.4.7c.8.4 1.7 1 2 1.4-.3.8-.6 1.7-1 2.6-.4-.2-.9-.3-1.4-.5l.4-1.5V33c-.1-.2-.5-.5-.8-.7-.5-.3-1.1-.4-1.5-.3-.4.1-.7.3-.9.6-.4.8 0 1.2 1.2 2.5 1.3 1.4 1.9 2.6 1.3 3.9-.4.8-1.1 1.4-2 1.6-.9.2-2.1 0-3.6-.7-.8-.4-1.8-1.1-2.3-1.6.3-.9.6-1.8 1-2.7.4.1 1 .3 1.4.4l-.5 1.8zM91.2 42.1c.1 0 .1 0 0 0l3.4-6.9-1-.5c.2-.4.4-.8.6-1.1.7.3 1.4.7 2.1 1 .5.2 3.1 1.5 3.5 1.7.6.3 1.1.5 1.6.8-.3.8-.5.9-.9 1.8-.4-.2-.9-.3-1.3-.5l.1-.5c0-.2 0-.3-.2-.4-.3-.2-1.1-.6-2-1.1-.1 0-.2-.1-.3-.1L95.3 39c.7.3 1.3.6 2 .9.2.1.3 0 .4-.1l.3-.4c.4.2.9.4 1.2.6-.2.5-.4.8-.7 1.3-.2.5-.4.7-.6 1.1-.4-.2-.8-.3-1.2-.6l.2-.3c.1-.2 0-.3-.2-.4-.6-.3-1.2-.6-1.9-.9l-1.3 2.7c-.1.3-.1.3.7.7.9.5 1.7.7 1.9.8.2.1.3 0 .4-.1l.7-.4c.4.3.8.6 1.1.8-.6.8-.8 1-1.4 1.7-1-.5-3-1.5-5.1-2.4-.7-.3-1.4-.7-2.2-1 .2-.3.3-.7.5-1.1l1.1.2z"/></g><g fill="#9D2949"><path d="M13.4 18.9c0 .1 0 .2.1.2.4.3 1 .5 1.6.6.7.1 1.5-.1 2-.5.4-.3.6-.8.7-1.4.1-1.4-.6-1.7-2.3-2.7-1.8-.9-3.1-2.1-3-3.9.1-1.2.8-2.1 1.6-2.7.9-.6 2.2-.9 3.8-.8 1 .1 2.1.4 2.5.6v3.3c-.5 0-1 .1-1.5.1l-.2-1.9c0-.1 0-.2-.1-.2-.3-.3-.7-.4-1.3-.5-.6 0-1.2.1-1.6.4-.4.3-.7.7-.8 1.4-.1 1.2.4 1.5 2.4 2.5s3.1 2.1 2.9 3.9c-.1 1.2-.6 2.2-1.5 2.9-.9.7-2.2.9-4 .8-.9-.1-2.2-.3-3-.7v-3.4c.5-.1 1.1-.1 1.6-.1l.1 2.1zM23.2 20.3s.1 0 0 0l.8-7.6-1.1-.2c0-.4.1-.8.1-1.2.7.1 1.6.2 2.3.2.8.1 1.7.2 2.4.2 0 .4-.1.8-.1 1.2l-1.2.1v.1l-.4 2.7s0 .1.1.1l4.3.4.3-3-1.3-.2c0-.4.1-.8.1-1.2.7.1 1.6.2 2.4.2.7.1 1.5.2 2.2.2 0 .4-.1.8-.1 1.2l-1-.1s-.1 0-.1.1l-.8 7.6 1.1.2c0 .4-.1.8-.1 1.2-.7-.1-1.5-.2-2.2-.3-.8-.1-1.7-.2-2.4-.2 0-.4.1-.8.1-1.2l1.2.1c.1 0 .1 0 .1-.1l.3-3.2s0-.1-.1-.1l-4.3-.4-.4 3.3 1.3.2c0 .4-.1.8-.1 1.2-.7-.1-1.6-.2-2.4-.3-.8-.1-1.6-.1-2.3-.2 0-.4.1-.8.1-1.2l1.2.2zM39.9 23.7c-1.6-.2-2.7-.9-3.5-1.8-.8-1-1.2-2.4-1-4 .3-2.1 1.6-3.6 2.9-4.2 1.1-.5 2.2-.6 3.5-.4 1.2.2 2.2.6 3 1.3 1 1 1.6 2.6 1.4 4.4-.2 1.6-1 3.1-2.3 4-.9.7-2.3.9-4 .7zm.4-1.2c.7.1 1.5-.1 2.1-.6.6-.6 1.2-1.6 1.4-3 .2-1.2 0-2.3-.5-3.2-.4-.8-1.1-1.2-1.9-1.3-.8-.1-1.4.1-2 .6-.7.5-1.4 1.6-1.6 3.1-.2 1.3 0 2.5.6 3.3.6.7 1.3 1 1.9 1.1zM61.9 20.6c-.7 1.1-1.5 2.2-2.2 3.4-.9 1.4-2.1 3-3.1 4.5-.4-.1-1.1-.3-1.9-.6 0-2.2 0-4.5.2-6.9h-.1c-1.4 1.9-2.9 3.9-4.2 5.6-.4-.1-1.1-.3-1.8-.6.1-1.9.2-3.7.3-5.5.1-1.3.2-2.7.3-3.8 0 0 0-.1-.1-.1l-.9-.3c.1-.4.3-.8.4-1.2.6.2 1.4.5 2 .7l2.7.9c-.1.3-.2.7-.4 1.1l-1.4-.4c-.1.6-.3 1.8-.4 3-.2 1.3-.4 2.6-.6 3.8h.1c1.1-1.5 3.4-4.9 4.6-6.4.3.1 1.2.3 1.6.5-.1 2-.2 5.6-.4 7.8h.1c.6-1 1.2-2.1 1.8-3.1.5-.9 1.3-2.2 1.6-2.9V20l-1.2-.4c.1-.4.3-.8.4-1.2.7.2 1.6.5 2.3.7.5.2 1.1.3 1.7.5-.1.4-.2.7-.4 1.2l-1-.2zM70.8 24.1v-.3c-.2-.2-.5-.4-.9-.6-.6-.3-1.5-.4-2.3-.1-1 .4-1.9 1.2-2.4 2.4-.5 1.1-.6 2-.3 3 .3.8 1 1.4 1.9 1.7.8.4 2 .6 2.8.7-.1.4-.2.9-.3 1.3-1.3-.1-2.6-.4-3.6-.8-1.2-.5-2.2-1.3-2.8-2.3-.6-1.1-.8-2.7-.1-4.2.9-2 2.5-3 4-3.3 1.4-.3 2.9-.1 4.2.5 1 .5 1.7.9 2 1.2-.3 1-.7 1.9-1.1 3-.4-.1-.9-.3-1.4-.5l.3-1.7zM71.5 32.4c.1 0 .1 0 0 0 2.2-1.9 5.2-4.5 7.4-6.5.3.1.9.4 1.7.8-.2 2.9-.6 7-.8 9.7l.8.4c-.2.4-.4.7-.5 1.1-.5-.3-1.2-.6-1.7-.8-.7-.4-1.6-.8-2.3-1.1.2-.3.4-.7.5-1.1l1 .5s.1 0 .1-.1c0-.5.1-1.1.1-1.5 0-.1 0-.1-.1-.1l-3.4-1.6c-.4.3-.9.8-1.2 1.2l1.2.6c-.2.4-.4.7-.5 1.1-.7-.3-1.5-.7-2.2-1.1-.5-.2-1-.5-1.4-.7.2-.3.3-.7.5-1.1l.8.3zm6.9-4.2c-1 1-2.2 2.1-3.1 3 0 0-.1.1 0 .1l2.8 1.3c.1-1.3.3-2.9.5-4.3l-.2-.1zM83.5 37.8v.2c.2.3.6.7 1.1.9.6.3 1.3.5 1.8.3.4-.1.6-.3.8-.7.4-.9-.1-1.4-1.2-2.6-1.2-1.3-1.9-2.5-1.2-3.9.4-.8 1.2-1.3 2-1.5s2 0 3.4.7c.8.4 1.7 1 2 1.4-.3.8-.6 1.7-1 2.6-.4-.1-.9-.3-1.4-.5l.4-1.5V33c-.1-.2-.5-.5-.8-.7-.5-.3-1.1-.4-1.5-.3-.4.1-.7.3-.9.6-.4.8 0 1.2 1.2 2.5 1.3 1.4 1.9 2.6 1.3 3.9-.4.8-1.1 1.4-2 1.6-.9.2-2.1 0-3.6-.7-.8-.4-1.8-1.1-2.3-1.6.3-.9.6-1.7 1-2.7.4.1 1 .3 1.4.4l-.5 1.8zM91.4 42.1l3.4-6.9-1-.5c.2-.4.4-.8.6-1.1.7.3 1.4.7 2.1 1 .5.2 3.1 1.5 3.5 1.7.6.3 1.1.5 1.6.8-.3.8-.5 1-.9 1.9-.4-.2-.9-.3-1.3-.5l.2-.6c0-.2 0-.3-.2-.4-.3-.2-1-.6-2-1.1-.1 0-.2-.1-.3-.1L95.4 39c.7.3 1.3.6 2 .9.2.1.3 0 .4-.1l.3-.3 1.2.6c-.2.5-.4.8-.7 1.2-.2.5-.4.6-.6 1.1-.4-.2-.8-.3-1.2-.6l.2-.3c.1-.2 0-.3-.2-.4-.6-.3-1.2-.6-1.9-.9l-1.3 2.7c-.1.3-.1.3.7.7.9.5 1.7.7 1.9.8.2.1.3 0 .4-.1l.6-.4c.4.3.8.6 1.1.8-.6.8-.7.9-1.3 1.6-1-.5-3-1.5-5.1-2.4-.7-.3-1.4-.7-2.2-1 .2-.3.3-.7.5-1.1l1.2.3z"/></g></svg><svg width="54" height="54" viewBox="0 0 54 54" id="staffpick" x="60" y="84.00399999999999"><g><radialGradient id="la" cx="27" cy="28.9" r="25.852" gradientTransform="matrix(1 0 0 -1 0 56)" gradientUnits="userSpaceOnUse"><stop offset=".517" stop-color="#130C0E" stop-opacity=".95"/><stop offset="1" stop-color="#130C0E" stop-opacity="0"/></radialGradient><circle fill="url(#la)" cx="27" cy="27.1" r="25.9"/><linearGradient id="lb" gradientUnits="userSpaceOnUse" x1="1.1" y1="31.2" x2="50.1" y2="31.2" gradientTransform="matrix(1 0 0 -1 0 56)"><stop offset="0" stop-color="#FFF7E5"/><stop offset=".314" stop-color="#F8E161"/><stop offset=".895" stop-color="#D7B237"/><stop offset="1" stop-color="#FEF4D1"/></linearGradient><circle fill="url(#lb)" cx="25.6" cy="24.8" r="24.5"/><path fill="#9A7400" d="M25.6.2s.6 0 1.7.1c.6 0 1.3.1 2.1.2.4.1.9.1 1.3.2.5.1.9.2 1.5.4 2 .6 4.5 1.4 7 3s5 3.9 7.2 6.8c2.1 3 3.8 6.8 4.4 11 .1.5.1 1.1.2 1.6 0 .6.1 1.1.1 1.7 0 1.1 0 2.1-.2 3.3-.2 2.3-.9 4.5-1.7 6.8-.9 2.2-2.1 4.3-3.6 6.3-1.6 1.9-3.4 3.6-5.5 5s-4.4 2.5-6.8 3.3c-1.2.3-2.5.7-3.7.9-.6.1-1.3.2-1.9.2l-1 .1H25.6c-2.3-.1-5.1-.5-7.5-1.2-2.4-.8-4.7-1.9-6.8-3.3-2.1-1.5-3.9-3.1-5.5-5-1.5-2-2.8-4-3.6-6.3C.3 30.8-.2 26.1.4 22c.6-4.3 2.3-8 4.4-11C7 8 9.5 5.7 12 4.1s5-2.5 7-3c.5-.1 1-.2 1.5-.4.5-.1.9-.1 1.3-.2.8-.1 1.5-.2 2.1-.2l1.7-.1zm0 .2s-.6 0-1.7.1c-.6 0-1.2.1-2 .2-.5.1-.9.2-1.4.3s-.9.2-1.4.4c-2 .6-4.4 1.5-6.8 3.1C9.8 6 7.4 8.3 5.4 11.3S2 18 1.5 22.1c-.5 4 .1 8.5 1.9 12.5.9 2.1 2.2 4 3.6 5.8 1.5 1.8 3.3 3.3 5.2 4.6 2 1.3 4.1 2.3 6.4 3s4.6 1 7.1 1c2.4-.1 4.8-.4 7-1 2.3-.7 4.4-1.7 6.4-3 1.9-1.3 3.7-2.9 5.2-4.6 1.4-1.8 2.7-3.7 3.6-5.8.9-2.1 1.6-4.2 1.8-6.3.2-1.1.2-2.1.3-3.2v-1.6c0-.5 0-1-.1-1.5-.5-4.1-1.9-7.8-3.9-10.8S41.5 6 39.1 4.4s-4.8-2.5-6.8-3.1c-.5-.1-1-.3-1.4-.4-.5-.1-.9-.1-1.3-.2-.8-.1-1.5-.2-2-.2-1.4 0-2-.1-2-.1z"/><linearGradient id="lc" gradientUnits="userSpaceOnUse" x1="36.552" y1="13.131" x2="14.613" y2="51.13" gradientTransform="matrix(1 0 0 -1 0 56)"><stop offset="0" stop-color="#AE5600"/><stop offset=".271" stop-color="#F8E161"/><stop offset=".498" stop-color="#FFF7E5"/><stop offset=".77" stop-color="#EDCC52"/><stop offset="1" stop-color="#AE5600"/></linearGradient><circle fill="url(#lc)" cx="25.6" cy="23.9" r="21.9"/><linearGradient id="ld" gradientUnits="userSpaceOnUse" x1="-501.714" y1="-301.402" x2="-467.83" y2="-281.838" gradientTransform="matrix(0 -1 -1 0 -266 -459.938)"><stop offset="0" stop-color="#F5E47B"/><stop offset=".105" stop-color="#F5E48C"/><stop offset=".481" stop-color="#E1AF00"/><stop offset=".865" stop-color="#F5E48C"/><stop offset="1" stop-color="#F2DD8E"/></linearGradient><circle fill="url(#ld)" stroke="#8D740F" stroke-miterlimit="10" cx="25.6" cy="24.8" r="19.6"/><g fill="#3D2E06"><path d="M14.8 18.6c0 .3 0 .7-.4.7-.3 0-.5-.3-.8-.7-.3-.4-.7-.8-1.3-.8-.5 0-1 .3-1 .9 0 1.6 3.9.9 3.9 3.6 0 1.4-1.3 2.4-3.1 2.4-1.1 0-2.1-.3-2.5-.8-.2-.3-.2-.6-.2-.9v-.4c0-.3.2-.5.4-.5.4 0 .4.4 1 1 .4.4.8.8 1.6.8.3 0 .6-.1.9-.3.2-.2.4-.4.4-.8 0-1.6-3.9-1.1-3.9-3.5C9.8 18 11 17 12.7 17c.8 0 1.6.2 2 .6 0 .2.1.6.1 1zM21.6 19.4c-.2 0-.3-.1-.4-.5-.1-.2-.3-.6-.6-.8-.3-.1-.5-.1-.8-.1-.3 0-.3.1-.3.3v4.2c0 .5 0 .9.1 1.1.2.5.6.4.6.7 0 .2-.2.3-.4.3h-2.4c-.2 0-.4-.1-.4-.3 0-.3.4-.2.6-.7.1-.2.1-.6.1-1.2v-4.2c0-.2 0-.3-.3-.3-.2 0-.4 0-.7.2-.4.2-.5.5-.6.8-.2.4-.2.4-.4.4-.3 0-.5-.1-.5-.4v-1.6c0-.3.1-.4.5-.4s1.3.1 2.1.1h1.5c.8 0 1.7-.1 2.1-.1.3 0 .5.1.5.4V19s-.1.4-.3.4zM28.7 23.9c.2.2.5.2.5.4 0 .1-.1.3-.4.3h-2.4c-.2 0-.4-.1-.4-.3 0-.3.5-.2.5-.7 0-.1 0-.2-.1-.3-.1-.2-.3-.8-.3-.8-.1-.1-.1-.2-.3-.2h-2.3c-.1 0-.2 0-.2.2-.2.5-.2.8-.2 1 0 .3.2.5.3.5.1.1.3.1.3.3 0 .2-.2.3-.4.3h-1.7c-.2 0-.4-.1-.4-.3 0-.1.1-.2.2-.2.2-.1.3-.2.6-.6.2-.3.3-.6.6-1.1l2.3-5.2c.1-.1.1-.2.3-.2h.7c.1 0 .2.1.2.2.2.4 2 5.3 2.3 5.9 0 .4.1.6.3.8zm-4.8-2.6v.1s0 .1.1.1h1.7c.1 0 .1 0 .1-.1v-.1l-.8-2.1-1.1 2.1zM35 19.4c-.2 0-.3-.1-.5-.4-.1-.2-.3-.6-.6-.8-.4-.2-.9-.2-1.6-.2h-.1c-.2 0-.3.1-.3.3v2s0 .3.3.3h.9c.4 0 .7-.1.9-.1s.4.1.4.2v.3c0 .3-.1.5-.5.5H32c-.1 0-.2.1-.2.2v.9c0 .7 0 1 .2 1.2.2.3.6.3.6.6 0 .2-.2.3-.4.3h-2.4c-.2 0-.4-.1-.4-.3 0-.3.3-.2.6-.6.1-.2.2-.6.2-1.3v-4c0-.4 0-.6-.3-.8-.2-.1-.4-.1-.4-.4 0-.1.1-.2.4-.2h2.8c1.1 0 1.9-.1 2.3-.1.3 0 .4.1.4.4V19c0 .3-.2.4-.4.4zM41.5 19.4c-.2 0-.3-.1-.5-.4-.1-.2-.3-.6-.6-.8-.4-.2-.8-.2-1.6-.2h-.1c-.2 0-.3.1-.3.3v2s0 .3.3.3h.9c.4 0 .7-.1 1-.1.2 0 .4.1.4.2v.3c0 .3-.1.5-.5.5H38.6c-.1 0-.2.1-.2.2v.9c0 .7 0 1 .2 1.2.2.3.6.3.6.6 0 .2-.2.3-.4.3h-2.4c-.2 0-.4-.1-.4-.3 0-.3.3-.2.6-.6.1-.2.2-.6.2-1.3v-4c0-.4 0-.6-.3-.8-.2-.1-.4-.1-.4-.4 0-.1.1-.2.4-.2h2.8c1.1 0 1.9-.1 2.3-.1.3 0 .4.1.4.4V19c-.1.3-.3.4-.5.4zM16.3 31.1h-.7c-.1 0-.1.1-.1.1v.7c0 .7.1.9.1 1.1.1.2.2.3.4.4.1.1.2.1.2.3s-.2.3-.4.3h-2.4c-.2 0-.4-.1-.4-.3s.1-.2.3-.3.3-.3.4-.4c.1-.1.1-.4.1-1.1v-4c0-.4 0-.6-.3-.8-.3 0-.5-.1-.5-.3 0-.1.1-.2.3-.2h2.3c1.4 0 2.4 0 3.1.7.4.4.6 1 .6 1.5 0 .3-.1.6-.2.9-.3.9-1.3 1.4-2.8 1.4zm1.3-2.3c0-.3-.1-.6-.3-.9-.3-.3-.7-.5-1.3-.5h-.3c-.1 0-.2.1-.2.2V30c0 .1 0 .1.1.1h.4c.7 0 1.2-.2 1.4-.6.1-.1.2-.4.2-.7zM23 33.8c0 .2-.2.3-.4.3h-2.4c-.2 0-.4-.1-.4-.3s.1-.2.2-.3c.2-.1.3-.3.4-.4.1-.1.1-.4.1-1.1v-3.8c0-.5 0-.8-.3-.9-.2-.1-.4-.1-.4-.4 0-.1.1-.2.4-.2h2.4c.2 0 .3.1.3.2 0 .2-.2.2-.4.4-.3.2-.3.4-.3.7v4c0 .7 0 .9.1 1.1.1.2.2.3.4.4.2.1.3.1.3.3zM29.7 31.6c.3 0 .5.2.5.6 0 .7-.1 1.1-.4 1.4-.4.4-1.3.6-2.1.6-2.3 0-4-1.5-4-3.8s1.8-3.9 4.2-3.9c.8 0 1.5.2 1.8.4.4.3.4.5.4.8v.4c0 .5-.1.7-.5.7s-.6-.5-.9-.9c-.2-.3-.6-.5-1.1-.5-1.4 0-2 1.5-2 2.8s.5 3.1 2.1 3.1c1.3-.1 1.2-1.7 2-1.7zM38.1 34.1h-.9c-.6 0-.8 0-1.1-.2s-.4-.4-1.2-1.7c-.5-.9-.8-1.3-1.1-1.3-.1 0-.2.1-.3.2l-.2.2c-.1.1-.1.1-.1.2v.4c0 .6 0 1 .2 1.3s.6.3.6.6c0 .2-.2.3-.4.3h-2.4c-.2 0-.4-.1-.4-.3 0-.3.4-.3.6-.6.1-.2.2-.5.2-1.2v-4c0-.4 0-.6-.3-.8-.2-.1-.4-.1-.4-.4 0-.1.1-.2.4-.2h2.4c.2 0 .4.1.4.2 0 .2-.2.2-.4.4-.3.2-.3.4-.3.8v2c0 .1 0 .1.1.1h.1l1.6-1.7c.5-.5.7-.8.7-1s-.3-.3-.3-.5.1-.3.4-.3h2c.2 0 .3.1.3.2 0 .2-.3.3-.6.4-.3.2-.8.5-1.8 1.4l-1.1 1.1c.1 0 .1-.1.2-.1.5 0 .9.8 1.4 1.6.9 1.5 1.2 1.8 1.4 2 .2.1.4.2.4.4.3.3.2.5-.1.5z"/></g></g></svg><svg viewBox="15 15 20 20" enable-background="new 15 15 20 20" width="20" height="20" id="star-corner-orange" x="114" y="84.00399999999999"><radialGradient id="ma" cx="25.021" cy="26.979" r="9.938" gradientTransform="matrix(1 0 0 -1 0 52)" gradientUnits="userSpaceOnUse"><stop offset=".515" stop-color="#fff"/><stop offset="1" stop-color="#fff" stop-opacity="0"/></radialGradient><circle fill="url(#ma)" cx="25" cy="25" r="9.9"/><path fill="#E88640" d="M15.6 27.3l7.3-2.8-4.4-6.2 5.9 4.8 3.3-7.1-1.4 7.6 7.7-.9-7.3 2.8 4.4 6.2-5.9-4.8-3.3 7.1 1.4-7.6-7.7.9zm8.2.8l1.1-2.4 2 1.6-1.5-2.1 2.5-1-2.6.3.5-2.6-1.1 2.4-2-1.7 1.5 2.1-2.5 1 2.6-.3-.5 2.7zM22 34h-.2l1.4-7.5-7.6.9v-.2l7.2-2.8-4.3-6.1.1-.1 5.8 4.7 3.2-7 .2.1-1.4 7.5 7.6-.9v.2l-7.2 2.8 4.3 6.1-.1.1-5.8-4.7L22 34zm1.4-7.7l-1.3 7 3-6.5.1.1 5.3 4.4-4.1-5.7 6.7-2.6-7.1.9 1.3-7-3 6.5-5.3-4.6 4.1 5.7-6.7 2.6 7-.8zm.5 1.8l-.2-.1.4-2.5-2.5.3v-.2l2.4-1-1.5-2 .1-.1 1.9 1.6 1.1-2.3.2.1-.5 2.5 2.5-.3v.2l-2.4.9 1.4 2-.1.1-1.7-1.5-1.1 2.3zm.5-2.7l-.4 2 .9-1.9 1.5 1.3-1.2-1.6 2-.8-2.1.2.4-2.1-.9 1.9-1.6-1.3 1.2 1.7-2 .8 2.2-.2z"/></svg><svg viewBox="15 15 20 20" enable-background="new 15 15 20 20" width="20" height="20" id="star-corner-red" x="134" y="84.00399999999999"><radialGradient id="na" cx="25" cy="27" r="9.995" gradientTransform="matrix(1 0 0 -1 0 52)" gradientUnits="userSpaceOnUse"><stop offset=".515" stop-color="#fff"/><stop offset="1" stop-color="#fff" stop-opacity="0"/></radialGradient><circle fill="url(#na)" cx="25" cy="25" r="10"/><path fill="#B85D57" d="M26.3 26.4l1.4 7.7-3.3-7.1-5.9 4.8 4.4-6.2-7.3-2.8 7.7.9-1.4-7.7 3.3 7.1 5.9-4.8-4.4 6.2 7.3 2.9-7.7-1zm-1-.9l2.7.3-2.5-1 1.5-2.1-2 1.7-1.2-2.4.5 2.6-2.7-.3 2.5 1-1.5 2.1 2-1.6 1.1 2.4-.4-2.7zM24.3 27.1l-5.8 4.7-.1-.1 4.4-6.1-7.2-2.8v-.2l7.6.9-1.4-7.5.2-.1 3.3 7 5.8-4.7.1.1-4.3 6.1 7.2 2.8v.2l-7.6-.9 1.4 7.5-.2.1-3.4-7zm9 0l-6.8-2.6 4.1-5.7-5.5 4.5-3.1-6.6 1.3 7.1-7.1-.9 6.8 2.6-4.1 5.7 5.4-4.4.1-.1 3.1 6.6-1.3-7.1 7.1.9zm-8.7-1.3l-1.9 1.5-.1-.1 1.4-2-2.4-1V24l2.5.3-.5-2.5.2-.1 1.1 2.3 1.9-1.6.1.1-1.5 2 2.4 1v.2l-2.5-.3.4 2.5-.2.1-.9-2.2zm2.7-.2l-2-.8 1.2-1.7-1.6 1.3-.9-1.8.4 2.1-2.1-.3 2 .8-1.2 1.6 1.6-1.3.9 1.9-.4-2.1 2.1.3z"/></svg><svg viewBox="0 0 60 60" enable-background="new 0 0 60 60" width="60" height="60" id="star-corner-three" y="84.00399999999999"><g fill="#F57F24"><path d="M17.2 33.9L32.6 28l-9.3-13.1L35.9 25l7-15-3 16.1 16.3-1.9-15.4 5.9L50 43.2 37.5 33l-7 15 3-16.1-16.3 2zm17.4 1.7l2.3-5.1 4.2 3.4-3.1-4.5 5.3-2.1-5.5.6 1.1-5.5-2.3 5.1-4.2-3.6 3.2 4.4-5.3 2.1 5.5-.6-1.2 5.8zM30.8 48h-.4l3-15.9L17.3 34v-.4l15.2-5.9-9.1-12.9.2-.2 12.3 9.9 6.8-14.8.3.3-3 15.9L56.1 24v.4l-15.2 5.9L50 43.2l-.2.2-12.3-9.9L30.8 48zm2.9-16.3L31 46.6l6.3-13.7.2.2 11.2 9.3L40 30.3l14.2-5.5-15 1.9L42 11.9l-6.3 13.7-11.2-9.7L33.2 28 19 33.5l14.7-1.8zm1.1 3.9l-.4-.2.8-5.3-5.3.6v-.4l5.1-2.1-3.2-4.2.2-.2 4 3.4 2.3-4.9.4.2-1.1 5.3 5.3-.6v.4L38 29.4l3 4.2-.2.2-3.6-3.2-2.4 5zm1.1-5.8l-.9 4.3 1.9-4 3.2 2.7-2.5-3.4 4.2-1.7-4.4.4.8-4.4-1.9 4-3.4-2.7 2.5 3.6-4.2 1.7 4.7-.5z"/></g><g fill="#6D9DBA"><path d="M12.9 15.2l7.7-4.6-6.2-6.1L22 8.7 24.3.1l-.1 8.8 8.5-2.5L25 11l6.2 6.1-7.6-4.3-2.3 8.6.1-8.8-8.5 2.6zm9.4-.7l.8-2.9 2.6 1.4-2.1-2.1 2.6-1.6-2.9.8.1-3-.8 2.9L20 8.5l2.1 2.1-2.6 1.6 2.9-.8-.1 3.1zM21.4 21.5h-.2l.1-8.7-8.4 2.5v-.2l7.6-4.6-6-6 .1-.1 7.5 4.2L24.2 0l.2.1-.1 8.7 8.4-2.5v.2l-7.6 4.6 6 6-.1.1-7.5-4.2-2.1 8.5zm.1-9l-.1 8.1 2.1-7.9.1.1 6.8 3.9-5.7-5.6 7-4.2-7.8 2.4.1-8.1-2.1 7.9L15 4.9l5.7 5.6-7 4.2 7.8-2.2zm.9 2l-.2-.1v-2.9l-2.8.8v-.2l2.5-1.6-2.1-2 .1-.1 2.5 1.4.7-2.8.2.1V10l2.7-.8v.2l-2.5 1.5 2 2-.1.1-2.2-1.4-.8 2.9zm0-3.2l-.1 2.3.6-2.3 1.9 1.2-1.5-1.5 2.1-1.3-2.3.6V7.9l-.6 2.3L20.4 9l1.7 1.7L20 12l2.4-.7z"/></g><g fill="#C04747"><path d="M5.8 54.8l8.4-8.9-10.4-5.8 11.5 2.8-.1-12.2 3.2 11.6 10.2-6.5-8.4 8.9 10.4 5.8-11.5-2.8.1 12.2L16 48.3 5.8 54.8zm12.1-4.5l-.1-4.1 3.9.9-3.5-1.9 2.8-3.1-3.5 2.2-1.1-4 .1 4.1-4-1 3.5 1.9-2.8 3.1 3.5-2.2 1.2 4.1zM19.4 59.9l-.3.1L16 48.5 5.9 54.9l-.1-.3 8.2-8.8-10.2-5.7.1-.2 11.3 2.7-.2-12h.3l3.1 11.5 10.1-6.4.1.3-8.2 8.8 10.2 5.7-.1.2L19.2 48l.2 11.9zm-3.3-11.8L19 58.8l-.2-11.2.2.1 10.4 2.6-9.6-5.3 7.7-8.2-9.4 6.1-2.9-10.7.2 11.2-10.5-2.9 9.6 5.3L6.8 54l9.3-5.9zm2 2.2h-.3l-1.1-3.8-3.3 2.1-.1-.3 2.7-3-3.5-1.8.1-.2 3.8 1v-4h.3l1 3.9 3.3-2.1.1.3-2.8 2.9 3.3 1.9-.1.2-3.4-1v3.9zm-1.2-4.2l.8 3.1v-3.3l3 .8-2.8-1.4 2.3-2.5-2.8 1.7-.9-3.2v3.3l-3.1-.8 2.8 1.6-2.2 2.5 2.9-1.8z"/></g></svg><svg viewBox="0 0 50 50" enable-background="new 0 0 50 50" width="50" height="50" id="star-corner-two" x="154"><g fill="#6D9DBA"><path d="M3.8 34.9l8.9-.7L9.9 26l4.9 7.2 5.9-6.7-4 7.9 8.7 1.5-8.9.7 2.8 8.2-4.9-7.2-5.9 6.7 4-7.9-8.7-1.5zm8.7 3.5l2-2.3 1.7 2.4-1-2.8 3.1-.3-3-.4 1.4-2.7-2 2.3-1.6-2.5 1 2.8-3.1.2 2.9.5-1.4 2.8zM8.6 44.3l-.2-.1 4-7.8L3.7 35l.1-.2 8.8-.7L9.9 26l.1-.1 4.8 7 5.8-6.6.2.2-4 7.8 8.6 1.5v.2l-8.8.7 2.7 8.1-.1.1-4.8-7-5.8 6.4zm4-8l-3.7 7.2 5.4-6.1.1.1 4.4 6.6-2.6-7.6 8.2-.7-8.1-1.3 3.7-7.2-5.4 6.1-4.3-6.8 2.6 7.6-8.2.7 7.9 1.4zm0 2.2l-.2-.2 1.3-2.6-2.8-.5.1-.2 3-.3-1-2.7.1-.1 1.6 2.4 2-2.2.2.2-1.4 2.6 2.8.5-.1.2-2.9.2.9 2.7-.1.1-1.4-2.2-2.1 2.1zm1.4-2.8l-1.1 2.1 1.6-1.8 1.2 1.9-.7-2.2 2.5-.2-2.4-.5 1.1-2.2-1.6 1.8-1.3-1.9.7 2.3-2.5.2 2.5.5z"/></g><g fill="#C04747"><path d="M12.3 20l13.6-3.1-6.2-12 9.2 9.9 7.6-11.7-4.4 13 13.8.3-13.6 3.1 6.2 12-9.2-9.9-7.6 11.7 4.4-13-13.8-.3zm14.2 3.4l2.5-4 3.1 3.3-2.1-4.1 4.7-1.1-4.7-.1 1.5-4.5-2.5 4-3-3.4 2.1 4.1-4.7 1.1 4.7.1-1.6 4.6zM21.9 33.4h-.4l4.3-12.9-13.6-.3v-.4l13.4-3.1-6-11.9.2-.2 9 9.7 7.4-11.5.3.2-4.2 13 13.6.3v.4l-13.4 3.1 6.1 11.8-.2.2-9-9.7-7.5 11.3zm4.4-13.3l-4 12 6.9-10.7.2.2 8.2 9.1-5.8-11.1 12.4-2.9-12.7-.2 4-12-6.9 10.7-8.2-9.4 5.8 11.1-12.4 2.9 12.5.3zm.4 3.3l-.3-.2 1.3-4.3-4.5-.1v-.4l4.5-1.2-2.1-3.9.2-.2 2.9 3.3 2.5-3.8.3.2-1.5 4.3 4.5.1v.4l-4.5 1 2 3.9-.2.2-2.6-3.1-2.5 3.8zm1.6-4.6l-1.2 3.4 2.1-3.1 2.3 2.7-1.7-3.1 3.7-.9-3.7-.2L31 14l-2.1 3.1-2.5-2.7 1.7 3.3-3.7.9 3.9.2z"/></g></svg><svg viewBox="0 0 153.9997 32.0035" enable-background="new 0 0 153.9997 32.0035" width="154" height="32.004" id="top-flourish"><g><path fill-rule="evenodd" clip-rule="evenodd" fill="#576C76" d="M136.832 30.504c-7.734 0-15.76-5.237-20.693-10.136-2.576-2.558-4.64-4.606-6.373-6.115.085.875-.053 1.83-.415 2.777-.916 2.398-2.806 3.773-5.187 3.773-2.794 0-5.618-1.91-6.717-4.543-.98-2.352-.407-4.848 1.574-6.847 1.27-1.285 3.053-1.994 5.015-1.994.26 0 .525.012.79.037.225-.04.45-.073.676-.1-1.544-.355-3.094-.554-4.632-.593l-.412-.004c-1.956 0-3.69.237-5.3.724-1.392.438-2.784 1.08-4.327 1.808-.203.097-.423.144-.64.144-.327 0-.653-.107-.92-.316-.448-.347-.66-.915-.553-1.47l.137-.703c.09-.468.4-.865.832-1.07 1.77-.834 3.665-1.69 5.637-2.16 1.654-.392 3.387-.592 5.15-.592 2.845 0 5.75.507 8.64 1.507 2.006.694 4.04 1.662 6.214 2.96 3.53 2.11 6.61 3.535 10.172 3.642l.272.003c.698 0 1.415-.047 2.168-.142.007-2.272.753-4.304 2.19-5.94 2.045-2.323 5.327-3.656 9.007-3.656 3.95 0 7.627 1.53 10.09 4.198 2.432 2.632 3.544 6.21 3.215 10.344-.623 7.836-6.813 13.065-12.605 14.18-.965.187-1.976.28-3.004.28zm-4.99-8.51c.986.144 2.032.247 3.15.302.353.017.7.025 1.033.025 3.952 0 6.66-1.16 7.834-3.36 1.047-1.964.735-4.706-.794-6.986-1.393-2.077-3.983-3.472-6.444-3.472-1.067 0-2.46.272-3.582 1.416.245-.077.49-.152.735-.218.754-.202 1.65-.41 2.575-.41.588 0 1.138.087 1.635.256 1.773.603 2.678 2.164 2.363 4.073-.388 2.343-2.686 4.937-5.497 5.28-.52 1.256-1.513 2.354-2.748 2.972-.085.043-.172.083-.26.12zM120.44 14.02c.512.476 1.02.93 1.547 1.36 1.616 1.31 3.168 2.24 4.737 2.84.06.02.12.042.178.063-.13-.298-.224-.616-.28-.95-.16-.975.02-1.824.41-2.524-.394.024-.782.036-1.163.036l-.342-.003c-1.93-.04-3.585-.347-5.087-.822zm-16.64-2.902c-.955 0-1.734.348-2.255 1.005-.544.688-.75 1.666-.54 2.553.285 1.206 1.313 2.1 2.34 2.432-.38-.537-.61-1.204-.662-1.933-.1-1.444.517-3.193 1.85-3.995-.254-.04-.498-.062-.733-.062zm29.734 2.397c.56.437 1.037 1.012 1.345 1.698.564-.218 1.243-.687 1.685-1.3.248-.347.376-.68.355-.917-.01-.004-.02-.01-.03-.013-.086-.028-.273-.057-.51-.066-.612 0-1.293.124-2.21.403-.2.063-.414.128-.635.195zm-27.31.878c-.033.08-.07.214-.063.41.006 0 .1-.016.145-.02-.003-.156-.03-.29-.083-.39z"/><path fill="#fff" d="M139.137 3c6.028 0 12.512 4.1 11.81 12.923-.586 7.356-6.392 11.864-11.393 12.827-.896.173-1.805.253-2.72.253-7.38 0-15.147-5.238-19.64-9.7-5.537-5.5-8.533-8.453-11.35-9.345-.742-.235-1.425-.34-2.047-.34-3.262 0-4.846 2.906-4.253 5.404.51 2.155 2.626 3.726 4.634 3.726.897 0 1.773-.314 2.473-1.03.203-.23.383-.484.544-.76.565-1.035.898-2.45.262-3.422-.087-.116-.182-.218-.287-.31-.16-.124-.327-.217-.507-.29-.172-.06-.34-.087-.5-.087-.935 0-1.626.95-1.486 2.236.022.143.056.28.1.412.045.108.097.21.157.303.277.38.608.503 1.03.525.166 0 .33-.02.496-.05.015-.004.03-.005.043-.005.275 0 .27.554-.03.61-.167.033-.337.05-.506.05-.43 0-.85-.117-1.182-.434-.355-.337-.567-.86-.607-1.43-.08-1.126.5-2.45 1.46-2.752.18-.056.365-.083.55-.083.708 0 1.414.397 1.782 1.1.48.91.373 2.138-.02 3.164-.763 2-2.23 2.81-3.784 2.81-3.783 0-8.088-4.787-4.08-8.836.98-.99 2.377-1.55 3.95-1.55.278 0 .56.02.847.054.823-.156 1.652-.232 2.48-.232.884 0 1.765.087 2.633.256.104.02.207.04.31.063 2.382.518 3.85 1.364 5.705 2.923 1.72 1.445 3.29 3.14 5.025 4.56 1.59 1.287 3.308 2.372 5.152 3.077 1.088.404 2.22.67 3.38.706h.1c.36 0 .714-.033 1.075-.138.308-.1.608-.24.896-.425.26-.177.507-.385.734-.63.183-.205.35-.43.492-.68.11-.2.203-.412.275-.636.047-.17.083-.34.105-.514-.44-.123-.865-.33-1.26-.625-.634-.474-1.27-1.124-1.695-1.93l-.16.042c-.235.077-.464.182-.685.322-.155.106-.3.228-.438.37-.09.108-.176.22-.25.347-.056.104-.103.212-.142.327-.027.1-.047.2-.06.304-.006.12-.004.234.008.35.024.15.06.29.11.43.083.212.19.405.31.588.07.095.144.177.23.25.135.104.28.183.435.245.197.07.4.11.61.12.15 0 .298-.016.448-.056.087-.03.17-.068.25-.117.055-.038.104-.08.15-.127.038-.044.07-.09.102-.14.028-.056.052-.114.074-.174.02-.08.035-.162.044-.244.005-.092.006-.182-.003-.272-.01-.056-.023-.11-.04-.163-.023-.05-.047-.097-.074-.142-.04-.05-.082-.097-.128-.138-.056-.04-.115-.075-.177-.102-.058-.018-.116-.03-.175-.035-.044.002-.087.007-.13.018-.023.01-.046.02-.067.032l-.036.03-.02.027c-.004.01-.01.022-.013.033-.004.018-.008.036-.01.055 0 .04 0 .077.003.115.015.09.038.172.066.255l.016.04c.096.24-.092.496-.257.496-.064 0-.125-.04-.164-.135-.17-.42-.28-1.073.148-1.402.155-.12.33-.174.505-.174.372 0 .74.245.912.624.287.64.11 1.62-.475 2.016-.315.214-.657.31-.995.31-.974 0-1.92-.807-2.113-1.982-.25-1.53.837-2.52 1.95-2.874-.15-.4-.245-.832-.265-1.293-1.305.26-2.616.42-3.92.42-.103 0-.207 0-.31-.002-5.674-.115-8.73-2.728-13.336-5.096-.98-.505-1.983-.95-3.006-1.34-2.668-.99-5.455-1.57-8.304-1.643-.15-.002-.3-.004-.45-.004-1.907 0-3.84.215-5.736.79-1.54.484-3.038 1.18-4.534 1.886l.136-.7c1.756-.83 3.517-1.623 5.344-2.058 1.59-.378 3.2-.552 4.804-.552 2.79 0 5.556.527 8.15 1.424 2.066.714 4.024 1.69 5.935 2.832 3.467 2.072 6.875 3.732 10.895 3.852l.318.003c1.248 0 2.5-.14 3.748-.373C128.738 6.268 133.756 3 139.138 3m-9.222 8.55c.855-3.765 4.297-5.614 7.937-5.614 3.262 0 6.684 1.483 8.55 4.4 3.526 5.514 1.504 14.422-10.02 14.422-.338 0-.683-.008-1.037-.023-4.306-.19-9.805-1.64-17.045-5.97 7.452 6.465 13.7 8.92 18.62 8.92 7.562 0 11.986-5.794 12.835-11.73.798-5.58-3.602-12.3-10.652-12.3-1.066 0-2.193.153-3.37.487-2.92.923-5.564 3.01-5.89 6.217-.022.316.022.773.072 1.19m.377.658c.998-.217 1.994-.49 2.983-.792.296-.092.59-.187.887-.267.7-.19 1.457-.36 2.188-.36.397 0 .785.05 1.152.176 3.243 1.103.343 6.472-3.276 6.472-.17 0-.338-.012-.51-.036-.19 1.437-1.218 2.594-2.286 3.13-.606.302-1.213.4-1.83.4-.166 0-.334-.007-.502-.02-1.06-.077-2.09-.335-3.085-.71-1.99-.75-3.835-1.94-5.532-3.36-1.733-1.448-3.308-3.157-5.055-4.587-2.437-1.97-4.688-2.817-7.842-2.91-.09-.003-.182-.004-.272-.004-.26 0-.523.01-.785.024.332.117.666.258 1 .424 9.49 4.718 12.847 13.297 27.392 14.006.38.018.75.027 1.107.027 10.444 0 11.634-7.692 8.288-12.68-1.676-2.5-4.77-4.138-7.69-4.138-2.224 0-4.346.95-5.663 3.196-.192.35-.354.713-.483 1.102-.086.3-.15.6-.185.908m.28 1.89c.127-.018.25-.027.37-.027.047 0 .092.003.136.005 1.182.073 2.575 1.14 2.666 2.72.158.028.316.045.478.05h.014c2.018 0 4.747-2.452 4.082-4.436-.04-.1-.088-.194-.144-.282-.075-.1-.16-.19-.25-.27-.15-.114-.31-.2-.482-.268-.325-.113-.664-.16-1.008-.172h-.06c-.88 0-1.77.202-2.64.466-.83.258-1.66.506-2.496.714-.32.08-.64.155-.96.225.004.102.013.203.024.306.043.278.11.542.2.8l.07.168m2.65 2.563c-.024-.128-.057-.252-.1-.372-.067-.173-.152-.33-.25-.48-.148-.206-.318-.382-.503-.538-.24-.19-.497-.354-.77-.465-.222-.077-.45-.118-.686-.127h-.028l.032.05c.335.477.713.904 1.137 1.26.342.272.707.493 1.098.65l.07.023m-2.704.628l-.02-.05c.006.017.012.034.02.05M139.136 0c-4.11 0-7.803 1.518-10.132 4.165-1.39 1.58-2.226 3.464-2.482 5.552-.254.013-.504.02-.75.02l-.26-.003c-3.21-.096-6.088-1.44-9.415-3.428-2.266-1.353-4.39-2.364-6.494-3.092-3.047-1.054-6.12-1.588-9.13-1.588-1.88 0-3.73.213-5.498.633-2.116.503-4.09 1.393-5.93 2.262-.864.408-1.482 1.203-1.665 2.14l-.135.702c-.216 1.11.21 2.247 1.104 2.94.536.418 1.185.632 1.84.632.436 0 .874-.095 1.282-.288 1.49-.705 2.833-1.322 4.152-1.738.714-.216 1.467-.378 2.266-.486-2.338 2.406-3.022 5.545-1.826 8.413 1.322 3.168 4.73 5.467 8.102 5.467 2.992 0 5.454-1.772 6.587-4.74.036-.093.07-.186.1-.28 1.25 1.19 2.65 2.582 4.228 4.148 5.147 5.11 13.563 10.57 21.753 10.57 1.123 0 2.23-.102 3.288-.306 6.35-1.223 13.134-6.952 13.817-15.535.46-5.763-1.708-9.424-3.607-11.48C147.583 1.706 143.503 0 139.137 0zm-3.26 20.233c3.115-.78 5.502-3.656 5.95-6.37.052-.31.08-.617.083-.916 1.148 1.795 1.395 3.863.625 5.308-.883 1.655-3.195 2.566-6.51 2.566-.167 0-.337 0-.51-.006.13-.188.25-.382.36-.58z"/></g><g><path fill-rule="evenodd" clip-rule="evenodd" fill="#576C76" d="M17.167 30.504c-1.03 0-2.04-.095-3.005-.282-5.79-1.115-11.98-6.343-12.605-14.18-.33-4.135.783-7.712 3.214-10.344C7.236 3.03 10.914 1.5 14.864 1.5c3.678 0 6.96 1.333 9.005 3.657 1.44 1.635 2.185 3.667 2.192 5.939.753.095 1.47.14 2.168.14h.288c3.548-.108 6.628-1.534 10.155-3.642 2.178-1.3 4.21-2.268 6.217-2.962 2.89-1 5.796-1.506 8.64-1.506 1.763 0 3.496.2 5.15.593 1.972.468 3.866 1.323 5.637 2.158.432.204.74.602.832 1.07l.137.702c.107.556-.106 1.124-.553 1.47-.268.21-.593.317-.92.317-.218 0-.437-.048-.642-.144-1.54-.73-2.93-1.37-4.342-1.813-1.594-.482-3.328-.72-5.284-.72l-.426.004c-1.53.04-3.075.237-4.62.592.227.03.452.062.675.1.268-.024.532-.037.792-.037 1.963 0 3.744.708 5.017 1.993 1.98 2 2.552 4.495 1.57 6.847-1.097 2.632-3.922 4.543-6.716 4.543-2.38 0-4.27-1.376-5.186-3.774-.362-.948-.5-1.902-.415-2.777-1.734 1.508-3.797 3.557-6.37 6.115-4.934 4.9-12.962 10.136-20.696 10.136zm.21-22.002c-2.46 0-5.05 1.395-6.443 3.472-1.53 2.28-1.84 5.022-.792 6.987 1.173 2.2 3.88 3.36 7.833 3.36.335 0 .68-.007 1.034-.024 1.115-.055 2.16-.158 3.146-.303-.086-.038-.172-.078-.257-.12-1.237-.62-2.23-1.717-2.75-2.973-2.812-.343-5.11-2.936-5.498-5.28-.317-1.91.59-3.47 2.362-4.074.498-.17 1.048-.255 1.636-.255.925 0 1.822.208 2.576.41.25.067.497.144.745.22-1.115-1.142-2.517-1.418-3.593-1.418zm9.592 6.306c.388.7.568 1.55.408 2.526-.054.333-.15.65-.278.95l.19-.07c1.536-.587 3.132-1.543 4.73-2.837.523-.427 1.03-.88 1.54-1.356-1.5.476-3.155.784-5.085.823l-.343.003c-.38 0-.768-.012-1.163-.038zm22.5-3.628c1.333.802 1.95 2.55 1.848 3.994-.05.728-.28 1.396-.66 1.934 1.026-.33 2.053-1.226 2.338-2.43.21-.89.004-1.867-.54-2.555-.52-.657-1.3-1.005-2.253-1.005-.234 0-.48.02-.733.062zm-1.626 3.625c.01-.193-.03-.334-.066-.415l-.012.008.006-.003c.004 0-.013.02-.03.043-.047.073-.068.192-.066.343.05.005.16.024.168.025z"/><path fill="#fff" d="M14.863 3c5.38 0 10.4 3.27 9.616 9.364 1.248.234 2.5.373 3.747.373.106 0 .212 0 .318-.003 4.02-.12 7.428-1.78 10.896-3.852 1.912-1.142 3.87-2.118 5.937-2.833 2.593-.898 5.36-1.424 8.15-1.424 1.603 0 3.214.174 4.803.552 1.827.435 3.588 1.228 5.344 2.057l.136.7c-1.496-.706-2.994-1.4-4.534-1.886-1.896-.575-3.828-.79-5.737-.79-.15 0-.3.002-.45.004-2.85.073-5.635.652-8.304 1.643-1.023.388-2.026.835-3.007 1.34-4.607 2.368-7.663 4.98-13.336 5.096l-.312.003c-1.303 0-2.614-.162-3.92-.42-.02.46-.113.892-.264 1.292 1.113.354 2.2 1.344 1.95 2.874-.192 1.175-1.138 1.983-2.113 1.983-.338 0-.68-.098-.995-.31-.584-.397-.762-1.377-.475-2.017.17-.38.54-.624.912-.624.174 0 .35.054.505.173.427.33.317.983.15 1.402-.04.095-.1.134-.165.134-.165 0-.353-.256-.256-.497l.017-.04c.028-.082.05-.165.066-.254.003-.038.004-.076.004-.115l-.01-.055-.015-.034c-.006-.01-.012-.02-.02-.027-.01-.012-.023-.022-.035-.032l-.067-.03c-.043-.01-.086-.015-.13-.017-.06.005-.117.017-.175.035-.062.027-.12.06-.177.102-.046.04-.088.087-.127.138-.026.045-.05.092-.072.142-.018.053-.03.108-.04.164-.01.09-.01.18-.004.272.01.082.024.162.044.243.022.06.046.116.074.173.03.05.064.096.1.14.048.047.097.09.15.127.082.05.165.087.252.117.15.04.3.057.448.057.21-.01.413-.05.61-.12.153-.063.3-.142.436-.246.085-.073.16-.155.228-.25.12-.183.228-.376.312-.59.048-.137.085-.278.11-.428.01-.116.013-.23.006-.35-.012-.103-.032-.203-.06-.303-.038-.115-.085-.223-.14-.328-.075-.127-.16-.24-.25-.347-.138-.143-.284-.265-.44-.37-.22-.14-.45-.246-.685-.323-.055-.015-.108-.03-.16-.04-.424.803-1.06 1.454-1.696 1.928-.394.294-.82.502-1.26.625.023.174.058.345.107.514.073.224.166.435.275.636.144.25.31.475.493.68.227.244.473.453.734.63.288.184.587.325.896.425.36.104.716.138 1.076.138h.098c1.16-.037 2.292-.302 3.38-.706 1.845-.705 3.562-1.79 5.152-3.077 1.737-1.42 3.304-3.115 5.025-4.56 1.855-1.56 3.322-2.405 5.705-2.924.102-.023.205-.045.308-.065.868-.168 1.75-.256 2.635-.256.826 0 1.655.075 2.48.232.285-.035.567-.053.844-.053 1.575 0 2.97.56 3.95 1.548 4.01 4.05-.295 8.835-4.078 8.835-1.555 0-3.02-.81-3.785-2.81-.393-1.025-.5-2.253-.02-3.164.368-.704 1.074-1.1 1.78-1.1.186 0 .372.028.552.084.96.3 1.54 1.626 1.46 2.753-.04.57-.252 1.092-.607 1.43-.334.316-.753.434-1.182.434-.17 0-.34-.018-.507-.05-.3-.056-.304-.61-.03-.61.014 0 .03 0 .043.004.165.032.33.05.496.05.42-.02.753-.145 1.03-.523.06-.093.112-.194.155-.302.047-.132.08-.27.102-.412.14-1.287-.55-2.237-1.485-2.237-.16 0-.328.027-.5.087-.18.072-.348.165-.506.288-.105.093-.2.195-.287.31-.636.973-.302 2.388.263 3.423.16.276.34.53.542.76.7.716 1.576 1.03 2.473 1.03 2.01 0 4.125-1.57 4.636-3.726.592-2.498-.99-5.404-4.253-5.404-.623 0-1.306.105-2.047.34-2.817.892-5.813 3.844-11.352 9.346-4.492 4.46-12.26 9.7-19.638 9.7-.915 0-1.824-.08-2.72-.254-5-.963-10.808-5.47-11.393-12.827C2.35 7.1 8.833 3 14.863 3m2.216 24.685c4.92 0 11.167-2.454 18.62-8.92-7.24 4.33-12.74 5.78-17.046 5.97-.353.015-.7.023-1.036.023-11.526 0-13.546-8.908-10.02-14.42 1.866-2.918 5.288-4.402 8.55-4.402 3.64 0 7.082 1.848 7.936 5.615.05-.417.095-.874.07-1.19-.323-3.21-2.966-5.295-5.886-6.218-1.178-.334-2.305-.488-3.37-.488-7.052 0-11.45 6.72-10.653 12.3.848 5.936 5.274 11.73 12.834 11.73m.895-3.863c.36 0 .727-.008 1.107-.026 14.545-.71 17.9-9.288 27.393-14.006.333-.166.667-.307 1-.424-.263-.015-.525-.023-.786-.023-.092 0-.183.002-.273.004-3.154.094-5.405.94-7.843 2.91-1.747 1.43-3.32 3.14-5.056 4.59-1.697 1.417-3.542 2.61-5.532 3.358-.995.375-2.025.633-3.085.71-.167.013-.334.02-.5.02-.617 0-1.224-.098-1.83-.4-1.07-.536-2.095-1.693-2.287-3.13-.17.024-.34.036-.51.036-3.62 0-6.52-5.37-3.276-6.472.368-.125.756-.175 1.152-.175.73 0 1.488.17 2.188.36.297.08.59.174.887.266.99.303 1.985.575 2.983.792-.036-.31-.1-.61-.186-.908-.128-.39-.29-.752-.482-1.103-1.316-2.244-3.44-3.195-5.663-3.195-2.92 0-6.013 1.638-7.69 4.137-3.345 4.988-2.153 12.68 8.288 12.68m1.79-6.974h.013c.16-.006.32-.023.478-.05.09-1.58 1.484-2.648 2.665-2.72.046-.003.09-.004.137-.004.12 0 .243.008.37.026.025-.055.048-.112.07-.17.09-.256.157-.52.2-.8.012-.102.02-.203.025-.305-.32-.07-.64-.145-.96-.224-.836-.21-1.666-.458-2.495-.716-.872-.264-1.76-.467-2.64-.467h-.06c-.345.014-.685.06-1.01.173-.17.068-.33.154-.48.27-.092.078-.176.167-.25.268-.057.088-.105.18-.145.28-.665 1.985 2.063 4.438 4.082 4.438m1.013-.185l.07-.023c.39-.156.756-.377 1.098-.648.424-.358.8-.785 1.137-1.263l.032-.05h-.028c-.235.01-.464.05-.686.128-.274.11-.53.275-.77.465-.185.156-.354.332-.503.54-.098.147-.182.305-.25.478-.043.12-.075.244-.1.373m2.704.628l.02-.05-.02.05M14.864 0h-.002C10.496 0 6.417 1.706 3.67 4.68 1.77 6.735-.398 10.396.06 16.16c.683 8.584 7.468 14.313 13.816 15.536 1.06.204 2.165.307 3.288.307 8.19 0 16.607-5.46 21.752-10.57 1.578-1.567 2.98-2.96 4.227-4.147.032.093.066.186.102.28 1.132 2.966 3.595 4.738 6.587 4.738 3.373 0 6.78-2.3 8.1-5.466 1.197-2.868.515-6.007-1.824-8.413.804.11 1.566.274 2.297.495 1.288.406 2.63 1.023 4.12 1.728.41.193.847.288 1.282.288.654 0 1.304-.214 1.84-.63.894-.695 1.32-1.832 1.105-2.942l-.137-.7c-.182-.94-.8-1.734-1.664-2.142-1.84-.87-3.815-1.76-5.93-2.262-1.767-.42-3.617-.634-5.498-.634-3.01 0-6.083.534-9.13 1.588-2.104.728-4.228 1.74-6.493 3.092-3.328 1.99-6.208 3.332-9.448 3.43h-.228c-.247 0-.496-.006-.75-.02-.256-2.086-1.093-3.97-2.482-5.55C22.665 1.52 18.973 0 14.863 0zm3.112 20.82c-3.315 0-5.627-.91-6.51-2.566-.77-1.445-.523-3.512.624-5.307.003.3.03.606.082.917.448 2.713 2.836 5.59 5.952 6.37.11.198.23.392.36.58-.172.005-.342.007-.51.007z"/></g><g><path fill="#F37522" d="M74.368 24.055c-.108 0-.242-.02-.344-.055-.506-.164-.822-.692-.727-1.224l1.24-6.64-6.707.812c-.04.004-.084.007-.124.007-.504 0-.94-.338-1.062-.823-.133-.53.152-1.08.662-1.28l6.439-2.507-3.854-5.41c-.315-.444-.252-1.06.15-1.43.184-.17.486-.29.737-.29.254 0 .5.09.696.253l5.14 4.197 2.914-6.25c.164-.352.596-.628.984-.628.112 0 .222.017.328.05.534.167.852.705.742 1.252l-1.24 6.61 6.703-.805c.04-.006.097-.01.137-.01.496 0 .927.34 1.048.825.133.53-.15 1.078-.656 1.277l-6.446 2.506 3.863 5.405c.31.43.257 1.04-.13 1.415-.187.18-.496.304-.756.304-.24 0-.477-.08-.666-.227l-5.17-4.214-2.914 6.25c-.165.353-.598.63-.986.63z"/><path fill="#fff" d="M80.51 3.787c.01 0 .02 0 .03.004.042.015.068.058.06.1l-1.493 7.965 8.055-.968.018-.002c.042 0 .07.03.078.068.01.043-.012.087-.053.103l-7.64 2.97 4.61 6.453c.026.034.02.084-.01.114-.018.016-.04.023-.06.023-.02 0-.04-.006-.057-.02l-6.143-5.006-3.458 7.415c-.014.03-.046.05-.08.05-.008 0-.018 0-.026-.003-.04-.014-.067-.057-.06-.1l1.49-7.973-8.06.975h-.004c-.048 0-.08-.024-.092-.066-.01-.044.012-.09.054-.105l7.636-2.975-4.598-6.455c-.026-.035-.02-.085.012-.115.016-.016.038-.024.06-.024.02 0 .04.007.055.02l6.142 5.017 3.458-7.415c.015-.032.044-.05.078-.05m-2.23 7l-.926 1.958c-.01.024-.033.042-.06.048l-.02.002c-.02 0-.04-.007-.055-.02l-1.634-1.336 1.23 1.71c.015.02.02.048.012.074-.007.027-.027.048-.05.057l-2.024.808 2.125-.27.01-.002c.024 0 .047.01.064.027.02.02.028.05.023.077l-.38 2.1.92-1.936c.012-.024.034-.042.06-.048h.018c.02 0 .04.004.057.017l1.59 1.293-1.19-1.657c-.016-.023-.02-.05-.013-.077.006-.026.026-.047.05-.057l2.028-.802-2.14.256c-.026 0-.054-.007-.073-.027-.02-.02-.028-.05-.023-.077l.398-2.117m2.23-9.003c-.803 0-1.52.45-1.875 1.174L76.25 8.08l-4.152-3.39c-.36-.3-.835-.472-1.32-.472-.546 0-1.06.21-1.453.59-.734.677-.856 1.857-.248 2.71l3.108 4.363-5.243 2.042c-.977.38-1.523 1.434-1.268 2.452.233.93 1.068 1.58 2.032 1.58h.06c.063-.002.124-.006.185-.014l5.353-.648-.988 5.292c-.184 1.037.422 2.05 1.407 2.37.2.064.435.1.646.1.806 0 1.548-.47 1.89-1.2l2.374-5.09 4.153 3.384.04.034c.365.28.82.435 1.28.435.498 0 .982-.18 1.36-.504.032-.027.062-.054.09-.082.74-.716.845-1.887.242-2.722l-3.11-4.35 5.243-2.038c.98-.384 1.522-1.438 1.268-2.452-.232-.932-1.062-1.583-2.018-1.583-.08 0-.17.006-.256.016l-5.35.644.99-5.285c.208-1.022-.403-2.056-1.424-2.377-.194-.06-.426-.096-.63-.096z"/></g></svg></svg>